<?xml version="1.0" encoding="utf-8"?>
<!-- Generator: Adobe Illustrator 21.1.0, SVG Export Plug-In . SVG Version: 6.00 Build 0)  -->
<svg version="1.1" id="레이어_1" xmlns="http://www.w3.org/2000/svg" xmlns:xlink="http://www.w3.org/1999/xlink" x="0px"
	 y="0px" viewBox="0 0 271 101" style="enable-background:new 0 0 271 101;" xml:space="preserve">
<style type="text/css">
	.st0{fill:#FFFFFF;}
	.st1{fill-rule:evenodd;clip-rule:evenodd;fill:#FFFFFF;}
</style>
<g>
	<g>
		<g>
			<path class="st0" d="M120.4,8.6c0,0-1.8,12.2-5.6,13.4c0,0-45.1-2.4-72.8,10c-7.4,3.3-15.5,6.3-21.8,11.6
				c-2.6,2.2-4.6,5.4-4.5,8.8c0,1.2,0.4,2.4,1.1,3.4c1,1.5,2.8,2.3,4.6,2.5c3,0.4,6.4-0.2,9.3-1c6.2-1.6,11.8-5.4,15.1-10.8
				c0.9-1.5,1.7-3.2,2.3-4.9c0.2-0.7,1.3-5.9,1.5-6c0,0,13.4-4,13.4-4S62.6,61.1,38.3,69c-10.1,3.3-24.2,5.2-32.6-3
				c-8.5-8.2-6.8-20.4,0.4-28.6c6.8-7.7,16.4-12.8,25.7-16.8c0.5-0.2,8.5-3.8,8.7-3.4c0,0-4.6-7.6-25.5-2c0,0-7.4,1.8-9.8-3.4
				s-2.6-7-2.6-7s38.9-15.2,54.6,8.8C57.2,13.6,90.5,7,120.4,8.6z"/>
		</g>
		<g>
			<path class="st0" d="M82.5,29.4c0,0,14.2-1.4,14.2-1.4c1.5-0.2-0.9,21-1.1,22.2C91.8,67.2,81.2,81.4,66.8,91
				c-6.4,4.2-13.3,7.5-20.4,10.1c-1.1-2.3-2.3-4.5-3.4-6.8c-1.7-3.4,0-6,3-7.8C50.8,83.4,84.9,70.6,82.5,29.4z"/>
		</g>
	</g>
	<g id="RENT_PARK">
		<g>
			<path class="st1" d="M150.5,25.1h0.5c1.8,0,2.8,0.4,3.5,1.8l6.3,12.5h10L165,28.8c-1.8-3.2-3.1-4.7-5.1-5.6v-0.2
				c4.5-0.9,8.1-4,8.1-10.7c0-8-4.8-11.3-13.3-11.3h-12.5v38.4h8.3V25.1z M150.5,7.9h3.3c3.7,0,5.7,1.6,5.7,5.1
				c0,3.6-1.4,5.5-5.9,5.5h-3.2V7.9z M199.2,32.5h-15.1v-9.1h12.4v-6.9h-12.4V7.9h14.4V1h-22.7v38.4h23.4V32.5z M229.7,13.2
				c0,4.1,0,9.4,0.4,14.7H230c-1.4-3.8-3.5-8.1-5.4-11.8L216.7,1h-10v38.4h8V24.9c0-6.6-0.2-9.6-0.5-13.4h0.2
				c1.6,4.2,3.2,8,5.1,11.7l8.4,16.2h9.8V1h-7.9V13.2z M251.9,39.4h8.4V7.9h9.5V1h-27.4v6.9h9.5V39.4z M155.4,55.7h-13.1v38.4h8.4
				V80.5h3.2c11.2,0,15-6.2,15-13.4C168.8,58.6,163.1,55.7,155.4,55.7z M153.3,73.6h-2.7V62.8h3.4c4.3,0,6.1,1.7,6.1,5.5
				C160.1,71.2,158.9,73.6,153.3,73.6z M179.1,55.7l-11.6,38.4h8.4l2.5-8.8h12.9l2.4,8.8h8.8l-11.7-38.4H179.1z M180.3,78.4l1.6-5.6
				c1.4-4.9,2.2-8,2.8-11.3h0.2c0.7,3.4,1.4,6.2,2.9,11.5l1.5,5.4H180.3z M225.3,77.9v-0.2c4.5-0.9,8.1-4,8.1-10.7
				c0-8-4.8-11.3-13.3-11.3h-12.5v38.4h8.3V79.8h0.5c1.8,0,2.8,0.4,3.5,1.8l6.3,12.5h10l-5.9-10.6C228.6,80.3,227.3,78.9,225.3,77.9
				z M219.1,73.2h-3.2V62.6h3.3c3.7,0,5.7,1.6,5.7,5.1C224.9,71.3,223.5,73.2,219.1,73.2z M241.2,94.1h8.4V55.7h-8.4V94.1z
				 M258.9,74.4l11.9-18.7h-9.6l-11.4,18.8v0.2l11.8,19.3H272L258.9,74.4z"/>
		</g>
	</g>
</g>
</svg>
