<?xml version="1.0" encoding="utf-8"?>
<!-- Generator: Adobe Illustrator 21.1.0, SVG Export Plug-In . SVG Version: 6.00 Build 0)  -->
<svg version="1.1" id="Layer_2" xmlns="http://www.w3.org/2000/svg" xmlns:xlink="http://www.w3.org/1999/xlink" x="0px" y="0px"
	 viewBox="0 0 209.2 26.3" style="enable-background:new 0 0 209.2 26.3;" xml:space="preserve">
<style type="text/css">
	.st0{fill:#FFFFFF;}
	.st1{fill-rule:evenodd;clip-rule:evenodd;fill:#FFFFFF;}
</style>
<g>
	<polygon class="st0" points="209.2,17.8 89.3,17.8 89.3,16.3 205.5,16.3 199.3,10.1 200.4,9.1 	"/>
	<g id="Apply">
		<g>
			<path class="st1" d="M9.1,1.6C9,1.4,8.9,1.3,8.8,1.2C8.6,1.1,8.4,1,8.3,1C7.8,1,7.6,1.2,7.4,1.6L0,19.7c0,0.1,0,0.1,0,0.3V20
				c0,0.2,0.1,0.4,0.2,0.5c0.1,0.1,0.3,0.2,0.6,0.2c0.4,0,0.6-0.2,0.8-0.6l2.1-5.1h9.1l2.1,5.1c0.1,0.2,0.2,0.3,0.3,0.4
				c0.1,0.1,0.3,0.2,0.5,0.2c0.2,0,0.4-0.1,0.6-0.2c0.2-0.1,0.3-0.3,0.3-0.6c0-0.1,0-0.2-0.1-0.3L9.1,1.6z M4.3,13.4l3.9-9.6
				l3.9,9.6H4.3z M29.7,7.2c-1-0.6-2.1-0.9-3.4-0.9c-1.1,0-2.1,0.3-3,0.8c-0.9,0.5-1.6,1.2-2.1,2.1V7.2c0-0.2-0.1-0.4-0.2-0.6
				c-0.2-0.2-0.4-0.3-0.6-0.3c-0.2,0-0.4,0.1-0.6,0.3c-0.2,0.2-0.2,0.4-0.2,0.6v18.3c0,0.2,0.1,0.4,0.2,0.6c0.2,0.2,0.4,0.2,0.6,0.2
				c0.2,0,0.4-0.1,0.6-0.2c0.2-0.2,0.2-0.4,0.2-0.6v-7.4c0.5,0.9,1.3,1.5,2.2,2.1c0.9,0.5,1.9,0.8,3,0.8c1.2,0,2.3-0.3,3.3-1
				c1-0.6,1.8-1.5,2.4-2.6c0.6-1.1,0.9-2.4,0.9-3.8c0-1.4-0.3-2.6-0.9-3.7C31.5,8.7,30.7,7.9,29.7,7.2z M30.6,16.5
				c-0.4,0.9-1,1.6-1.8,2.1c-0.8,0.5-1.6,0.7-2.6,0.7c-1,0-1.9-0.2-2.7-0.7c-0.8-0.5-1.4-1.2-1.8-2.1c-0.4-0.9-0.6-1.9-0.6-3
				c0-1.1,0.2-2.1,0.6-3c0.4-0.9,1-1.5,1.8-2c0.8-0.5,1.7-0.7,2.7-0.7c1,0,1.8,0.2,2.6,0.7c0.8,0.5,1.4,1.2,1.8,2
				c0.4,0.9,0.7,1.8,0.7,2.9C31.3,14.7,31.1,15.7,30.6,16.5z M46.5,7.2c-1-0.6-2.1-0.9-3.4-0.9c-1.1,0-2.1,0.3-3,0.8
				c-0.9,0.5-1.6,1.2-2.1,2.1V7.2c0-0.2-0.1-0.4-0.2-0.6c-0.2-0.2-0.4-0.3-0.6-0.3c-0.2,0-0.4,0.1-0.6,0.3c-0.2,0.2-0.2,0.4-0.2,0.6
				v18.3c0,0.2,0.1,0.4,0.2,0.6c0.2,0.2,0.4,0.2,0.6,0.2c0.2,0,0.4-0.1,0.6-0.2c0.2-0.2,0.2-0.4,0.2-0.6v-7.4
				c0.5,0.9,1.3,1.5,2.2,2.1c0.9,0.5,1.9,0.8,3,0.8c1.2,0,2.3-0.3,3.3-1c1-0.6,1.8-1.5,2.4-2.6c0.6-1.1,0.9-2.4,0.9-3.8
				c0-1.4-0.3-2.6-0.9-3.7C48.3,8.7,47.5,7.9,46.5,7.2z M47.5,16.5c-0.4,0.9-1,1.6-1.8,2.1c-0.8,0.5-1.6,0.7-2.6,0.7
				c-1,0-1.9-0.2-2.7-0.7c-0.8-0.5-1.4-1.2-1.8-2.1c-0.4-0.9-0.6-1.9-0.6-3c0-1.1,0.2-2.1,0.6-3c0.4-0.9,1-1.5,1.8-2
				C41.2,8.1,42,7.9,43,7.9c1,0,1.8,0.2,2.6,0.7c0.8,0.5,1.4,1.2,1.8,2c0.4,0.9,0.7,1.8,0.7,2.9C48.1,14.7,47.9,15.7,47.5,16.5z
				 M54.2,0c-0.2,0-0.4,0.1-0.6,0.2c-0.2,0.2-0.2,0.4-0.2,0.6v19c0,0.2,0.1,0.4,0.2,0.6c0.2,0.2,0.4,0.2,0.6,0.2
				c0.2,0,0.4-0.1,0.6-0.2c0.2-0.2,0.2-0.4,0.2-0.6v-19c0-0.2-0.1-0.4-0.2-0.6C54.7,0.1,54.5,0,54.2,0z M70.5,6.4
				c-0.2-0.2-0.4-0.2-0.6-0.2c-0.2,0-0.4,0.1-0.6,0.2c-0.2,0.2-0.2,0.4-0.2,0.6v8.3c0,0.7-0.2,1.4-0.6,2c-0.4,0.6-1,1.1-1.7,1.5
				c-0.7,0.4-1.4,0.6-2.2,0.6c-1.3,0-2.2-0.3-2.8-1c-0.6-0.7-0.9-1.7-0.9-3.1V7c0-0.2-0.1-0.4-0.2-0.6c-0.2-0.2-0.4-0.2-0.6-0.2
				c-0.2,0-0.4,0.1-0.6,0.2c-0.2,0.2-0.2,0.4-0.2,0.6v8.6c0,1.7,0.4,3,1.3,3.9c0.8,1,2.1,1.5,3.7,1.5c1,0,2-0.2,2.9-0.7
				c0.9-0.5,1.5-1.1,2-1.9v1c0,1.7-0.5,3-1.4,4c-0.9,1-2.1,1.5-3.7,1.5c-1.1,0-2.2-0.3-3.4-1c-0.1-0.1-0.2-0.1-0.3-0.1
				c-0.1,0-0.3,0-0.4,0.1c-0.1,0.1-0.2,0.2-0.3,0.4c0,0.1-0.1,0.2-0.1,0.3c0,0.3,0.2,0.6,0.6,0.8c0.4,0.3,1,0.5,1.7,0.7
				c0.7,0.2,1.4,0.3,2.2,0.3c1.3,0,2.4-0.3,3.5-0.8c1-0.5,1.8-1.3,2.4-2.4c0.6-1,0.9-2.3,0.9-3.8V7C70.8,6.8,70.7,6.6,70.5,6.4z"/>
		</g>
	</g>
</g>
</svg>
