<?xml version="1.0" encoding="utf-8"?>
<!-- Generator: Adobe Illustrator 21.1.0, SVG Export Plug-In . SVG Version: 6.00 Build 0)  -->
<svg version="1.1" id="google_x5F_map_1_" xmlns="http://www.w3.org/2000/svg" xmlns:xlink="http://www.w3.org/1999/xlink" x="0px"
	 y="0px" viewBox="0 0 286 26" style="enable-background:new 0 0 286 26;" xml:space="preserve">
<style type="text/css">
	.st0{fill:#FFFFFF;}
	.st1{fill-rule:evenodd;clip-rule:evenodd;fill:#FFFFFF;}
</style>
<g id="arrow_xA0_이미지_1_">
	<polygon class="st0" points="285.9,15 166.1,15 166.1,13.5 282.3,13.5 276.1,7.3 277.1,6.2 	"/>
</g>
<g id="Google_Map">
	<g>
		<path class="st1" d="M14.6,10.1h-4.6c-0.3,0-0.6,0.1-0.9,0.4c-0.2,0.2-0.4,0.5-0.4,0.9c0,0.3,0.1,0.6,0.4,0.9
			c0.2,0.2,0.5,0.4,0.9,0.4h3.1v4.1c-0.5,0.2-1,0.4-1.7,0.5c-0.7,0.1-1.3,0.2-1.9,0.2c-1.2,0-2.4-0.3-3.4-0.9
			c-1-0.6-1.8-1.4-2.4-2.5c-0.6-1-0.9-2.2-0.9-3.5c0-1.3,0.3-2.4,0.9-3.5C4.4,6,5.2,5.2,6.3,4.6c1-0.6,2.2-0.9,3.4-0.9
			c1.2,0,2.3,0.3,3.4,0.8c0.2,0.1,0.4,0.2,0.7,0.2c0.3,0,0.6-0.1,0.8-0.4C14.9,4,15,3.7,15,3.4c0-0.2-0.1-0.4-0.2-0.6
			c-0.1-0.2-0.3-0.3-0.5-0.4C13.7,2,13,1.7,12.2,1.5c-0.8-0.2-1.6-0.3-2.5-0.3c-1.7,0-3.3,0.4-4.8,1.2c-1.4,0.8-2.6,2-3.4,3.4
			c-0.8,1.4-1.2,3-1.2,4.7s0.4,3.3,1.2,4.7c0.8,1.4,2,2.6,3.4,3.4c1.4,0.8,3,1.2,4.8,1.2c1,0,2-0.1,2.9-0.4c1-0.3,1.8-0.7,2.6-1.2
			c0.4-0.3,0.6-0.6,0.6-1.1v-5.9c0-0.3-0.1-0.6-0.4-0.9C15.3,10.2,15,10.1,14.6,10.1z M28.6,6.7c-1-0.6-2.2-0.9-3.5-0.9
			c-1.3,0-2.4,0.3-3.5,0.9c-1,0.6-1.9,1.5-2.5,2.5c-0.6,1.1-0.9,2.3-0.9,3.7s0.3,2.6,0.9,3.6c0.6,1.1,1.4,1.9,2.5,2.5
			c1,0.6,2.2,0.9,3.5,0.9c1.3,0,2.4-0.3,3.5-0.9c1-0.6,1.9-1.4,2.5-2.5c0.6-1.1,0.9-2.3,0.9-3.6s-0.3-2.6-0.9-3.7
			C30.4,8.1,29.6,7.3,28.6,6.7z M28.9,15.3c-0.4,0.7-0.9,1.3-1.6,1.7c-0.7,0.4-1.4,0.6-2.2,0.6c-0.8,0-1.6-0.2-2.2-0.6
			c-0.7-0.4-1.2-1-1.6-1.7c-0.4-0.7-0.6-1.6-0.6-2.5c0-0.9,0.2-1.8,0.6-2.5c0.4-0.7,0.9-1.3,1.6-1.7C23.5,8.2,24.3,8,25.1,8
			c0.8,0,1.6,0.2,2.2,0.6c0.7,0.4,1.2,1,1.6,1.7c0.4,0.7,0.6,1.6,0.6,2.5C29.5,13.8,29.3,14.6,28.9,15.3z M44.2,6.7
			c-1-0.6-2.2-0.9-3.5-0.9c-1.3,0-2.4,0.3-3.5,0.9c-1,0.6-1.9,1.5-2.5,2.5c-0.6,1.1-0.9,2.3-0.9,3.7s0.3,2.6,0.9,3.6
			c0.6,1.1,1.4,1.9,2.5,2.5c1,0.6,2.2,0.9,3.5,0.9c1.3,0,2.4-0.3,3.5-0.9c1-0.6,1.9-1.4,2.5-2.5c0.6-1.1,0.9-2.3,0.9-3.6
			s-0.3-2.6-0.9-3.7C46.1,8.1,45.3,7.3,44.2,6.7z M44.6,15.3c-0.4,0.7-0.9,1.3-1.6,1.7c-0.7,0.4-1.4,0.6-2.2,0.6
			c-0.8,0-1.6-0.2-2.2-0.6c-0.7-0.4-1.2-1-1.6-1.7c-0.4-0.7-0.6-1.6-0.6-2.5c0-0.9,0.2-1.8,0.6-2.5c0.4-0.7,0.9-1.3,1.6-1.7
			C39.2,8.2,39.9,8,40.7,8c0.8,0,1.6,0.2,2.2,0.6c0.7,0.4,1.2,1,1.6,1.7c0.4,0.7,0.6,1.6,0.6,2.5C45.1,13.8,44.9,14.6,44.6,15.3z
			 M61.7,5.9c-0.4,0-0.7,0.1-0.9,0.4c-0.2,0.2-0.3,0.5-0.3,0.9V8c-0.5-0.6-1.1-1.2-1.9-1.6c-0.8-0.4-1.7-0.6-2.7-0.6
			c-1.2,0-2.3,0.3-3.2,0.9c-1,0.6-1.8,1.5-2.3,2.5c-0.6,1.1-0.8,2.3-0.8,3.7s0.3,2.6,0.8,3.7c0.6,1.1,1.3,1.9,2.3,2.5
			c1,0.6,2.1,0.9,3.3,0.9c1,0,1.9-0.2,2.7-0.7c0.9-0.5,1.5-1.1,1.8-1.7v1.4c0,1.2-0.4,2.1-1.1,2.7c-0.7,0.7-1.8,1-3.2,1
			c-0.8,0-1.9-0.3-3.2-0.8c-0.3-0.1-0.5-0.2-0.7-0.2c-0.5,0-0.8,0.2-1,0.6c-0.1,0.2-0.1,0.3-0.1,0.4c0,0.4,0.3,0.8,0.8,1
			c0.3,0.3,0.9,0.5,1.8,0.8c0.9,0.2,1.7,0.4,2.4,0.4c1.3,0,2.4-0.2,3.5-0.7c1-0.5,1.8-1.1,2.4-2.1c0.6-0.9,0.9-2.1,0.9-3.5V7.2
			c0-0.4-0.1-0.7-0.4-0.9S62.1,5.9,61.7,5.9z M60.1,15.3c-0.4,0.7-0.9,1.3-1.5,1.7c-0.7,0.4-1.4,0.6-2.3,0.6c-0.8,0-1.6-0.2-2.2-0.6
			c-0.7-0.4-1.2-1-1.5-1.7c-0.4-0.7-0.6-1.6-0.6-2.5c0-0.9,0.2-1.7,0.6-2.5c0.4-0.7,0.9-1.3,1.5-1.7C54.7,8.2,55.4,8,56.3,8
			c0.8,0,1.6,0.2,2.3,0.6c0.7,0.4,1.2,1,1.5,1.7c0.4,0.7,0.6,1.6,0.6,2.5C60.6,13.8,60.4,14.6,60.1,15.3z M67.8,0.4
			c-0.3,0-0.6,0.1-0.9,0.4c-0.2,0.2-0.4,0.5-0.4,0.9v16.7c0,0.3,0.1,0.6,0.4,0.9c0.2,0.2,0.5,0.4,0.9,0.4c0.3,0,0.6-0.1,0.9-0.4
			c0.2-0.2,0.4-0.5,0.4-0.9V1.7c0-0.3-0.1-0.6-0.4-0.9C68.5,0.6,68.2,0.4,67.8,0.4z M81.4,6.6c-1-0.6-2-0.9-3.1-0.9
			c-1.1,0-2.2,0.3-3.2,0.9c-1,0.6-1.8,1.4-2.4,2.5c-0.6,1.1-0.9,2.4-0.9,3.8c0,1.3,0.3,2.5,0.9,3.6c0.6,1.1,1.4,1.9,2.5,2.5
			c1.1,0.6,2.3,0.9,3.7,0.9c0.9,0,1.7-0.2,2.5-0.5c0.8-0.3,1.5-0.8,2-1.3c0.3-0.3,0.5-0.6,0.5-1c0-0.3-0.1-0.5-0.3-0.7
			c-0.2-0.2-0.4-0.3-0.7-0.3c-0.2,0-0.5,0.1-0.8,0.2c-0.4,0.4-0.9,0.7-1.4,0.9c-0.5,0.2-1.2,0.4-2,0.4c-1.2,0-2.2-0.4-3.1-1.1
			c-0.8-0.8-1.3-1.8-1.4-3h9.2c0.3,0,0.6-0.1,0.9-0.3c0.2-0.2,0.4-0.5,0.4-0.8c0-1.2-0.3-2.4-0.9-3.4C83.2,8,82.4,7.2,81.4,6.6z
			 M82,11.4h-7.7c0.2-1.1,0.7-2,1.4-2.5C76.5,8.3,77.3,8,78.3,8c0.9,0,1.8,0.3,2.5,0.9c0.7,0.6,1.1,1.3,1.2,2.3V11.4z M110.9,1.5
			c-0.4,0-0.8,0.2-1,0.6l-6.2,9.3L97.4,2c-0.1-0.2-0.3-0.3-0.5-0.4c-0.2-0.1-0.4-0.2-0.6-0.2c-0.4,0-0.7,0.1-0.9,0.4
			C95.2,2.1,95,2.4,95,2.7v15.7c0,0.4,0.1,0.7,0.3,0.9c0.2,0.2,0.5,0.4,0.8,0.4c0.4,0,0.7-0.1,0.9-0.4c0.2-0.2,0.3-0.5,0.3-0.9V6.2
			l5.1,7.9c0.1,0.2,0.3,0.3,0.5,0.4s0.4,0.1,0.5,0.1c0.2,0,0.4,0,0.6-0.1s0.3-0.2,0.5-0.4l5-7.6v12c0,0.4,0.1,0.7,0.4,0.9
			c0.2,0.2,0.6,0.4,0.9,0.4c0.4,0,0.7-0.1,0.9-0.4c0.2-0.2,0.4-0.5,0.4-0.9V2.7c0-0.3-0.1-0.6-0.4-0.9
			C111.5,1.6,111.2,1.5,110.9,1.5z M127.1,5.9c-0.4,0-0.7,0.1-0.9,0.4c-0.2,0.2-0.3,0.5-0.3,0.9v0.6c-0.5-0.6-1.1-1.1-1.9-1.5
			c-0.8-0.4-1.6-0.6-2.6-0.6c-1.1,0-2.2,0.3-3.1,0.9c-1,0.6-1.7,1.5-2.2,2.5c-0.5,1.1-0.8,2.3-0.8,3.7s0.3,2.6,0.8,3.7
			c0.5,1.1,1.3,1.9,2.3,2.5c1,0.6,2,0.9,3.2,0.9c0.9,0,1.7-0.2,2.5-0.6c0.8-0.4,1.4-0.9,1.8-1.5v0.7c0,0.4,0.1,0.7,0.3,0.9
			c0.2,0.2,0.5,0.4,0.9,0.4c0.4,0,0.7-0.1,0.9-0.4c0.2-0.2,0.4-0.5,0.4-0.9V7.2c0-0.4-0.1-0.7-0.4-0.9S127.4,5.9,127.1,5.9z
			 M125.4,15.3c-0.4,0.7-0.8,1.3-1.5,1.7c-0.6,0.4-1.4,0.6-2.2,0.6c-0.8,0-1.5-0.2-2.2-0.6c-0.6-0.4-1.1-1-1.5-1.7
			c-0.4-0.7-0.5-1.6-0.5-2.5c0-0.9,0.2-1.7,0.5-2.5c0.4-0.7,0.8-1.3,1.5-1.7c0.6-0.4,1.4-0.6,2.2-0.6c0.8,0,1.5,0.2,2.2,0.6
			c0.6,0.4,1.1,1,1.5,1.7c0.4,0.7,0.5,1.5,0.5,2.4C125.9,13.8,125.8,14.6,125.4,15.3z M144.1,9.2c-0.5-1.1-1.3-1.9-2.2-2.5
			c-1-0.6-2-0.9-3.2-0.9c-0.9,0-1.8,0.2-2.5,0.6c-0.8,0.4-1.4,1-1.8,1.6V7.3c0-0.4-0.1-0.7-0.4-0.9C133.7,6.1,133.4,6,133,6
			s-0.7,0.1-0.9,0.4c-0.2,0.2-0.3,0.5-0.3,0.9v16.4c0,0.4,0.1,0.7,0.4,0.9c0.2,0.2,0.5,0.4,0.9,0.4c0.4,0,0.7-0.1,0.9-0.4
			c0.2-0.2,0.4-0.5,0.4-0.9v-5.8c0.5,0.6,1.1,1.1,1.9,1.5c0.8,0.4,1.6,0.6,2.5,0.6c1.1,0,2.2-0.3,3.1-0.9c1-0.6,1.7-1.4,2.2-2.5
			c0.5-1.1,0.8-2.3,0.8-3.6S144.6,10.3,144.1,9.2z M142,15.3c-0.4,0.7-0.9,1.3-1.5,1.7c-0.6,0.4-1.4,0.6-2.2,0.6
			c-0.8,0-1.5-0.2-2.2-0.6c-0.6-0.4-1.1-1-1.5-1.7c-0.4-0.7-0.5-1.5-0.5-2.4c0-0.9,0.2-1.7,0.5-2.4c0.4-0.7,0.9-1.3,1.5-1.7
			c0.6-0.4,1.4-0.6,2.2-0.6c0.8,0,1.5,0.2,2.2,0.6c0.6,0.4,1.1,1,1.5,1.7c0.4,0.7,0.5,1.5,0.5,2.4C142.5,13.8,142.3,14.6,142,15.3z"
			/>
	</g>
</g>
</svg>
