<?xml version="1.0" encoding="utf-8"?>
<!-- Generator: Adobe Illustrator 21.1.0, SVG Export Plug-In . SVG Version: 6.00 Build 0)  -->
<svg version="1.1" id="레이어_1" xmlns="http://www.w3.org/2000/svg" xmlns:xlink="http://www.w3.org/1999/xlink" x="0px"
	 y="0px" viewBox="0 0 494.9 99" style="enable-background:new 0 0 494.9 99;" xml:space="preserve">
<style type="text/css">
	.st0{fill-rule:evenodd;clip-rule:evenodd;fill:#FFFFFF;}
	.st1{fill:#FFFFFF;}
</style>
<g id="KAKIT_Hardware_for_Data_Communication">
	<g>
		<path class="st0" d="M11.6,1.4H2.4v42.1h9.2V1.4z M34.9,1.4H24.3L11.8,22v0.2l12.9,21.2h11.5L21.8,21.9L34.9,1.4z M62.8,1.4H50
			L37.3,43.5h9.2l2.7-9.7h14.1l2.6,9.7h9.6L62.8,1.4z M51.3,26.2l1.7-6.1c1.5-5.3,2.4-8.8,3.1-12.4h0.2c0.7,3.7,1.6,6.8,3.2,12.6
			l1.6,5.9H51.3z M81.2,43.5h9.2V1.4h-9.2V43.5z M115,43.5l-14.4-21.6l13.1-20.5h-10.6L90.7,22v0.2l12.9,21.2H115z M129.8,1.4h-9.2
			v42.1h9.2V1.4z M154.9,43.5V9h10.4V1.4h-30.1V9h10.4v34.5H154.9z M15.2,72.5c-0.4,0-0.8,0.1-1,0.4c-0.3,0.3-0.5,0.6-0.5,1v7.6H3
			v-7.6c0-0.4-0.1-0.7-0.4-1c-0.3-0.3-0.6-0.4-1-0.4c-0.4,0-0.8,0.1-1.1,0.4c-0.3,0.3-0.4,0.6-0.4,1V92c0,0.4,0.1,0.8,0.4,1.1
			c0.3,0.3,0.6,0.4,1.1,0.4c0.4,0,0.8-0.1,1-0.4C2.9,92.8,3,92.4,3,92v-7.8h10.6V92c0,0.4,0.1,0.8,0.4,1.1c0.3,0.3,0.6,0.4,1,0.4
			c0.4,0,0.8-0.1,1.1-0.4c0.3-0.3,0.4-0.6,0.5-1.1V73.9c0-0.4-0.1-0.8-0.4-1C15.9,72.6,15.6,72.5,15.2,72.5z M34,77.5
			c-0.4,0-0.8,0.1-1,0.4c-0.3,0.3-0.4,0.6-0.4,1v0.7C32,79,31.3,78.5,30.4,78c-0.9-0.4-1.9-0.7-3-0.7c-1.3,0-2.5,0.4-3.6,1
			c-1.1,0.7-2,1.7-2.6,2.9c-0.6,1.3-0.9,2.7-0.9,4.2s0.3,3,0.9,4.2c0.6,1.3,1.5,2.2,2.6,2.9c1.1,0.7,2.3,1,3.7,1c1,0,2-0.2,2.9-0.7
			c0.9-0.5,1.6-1.1,2.1-1.8V92c0,0.4,0.1,0.8,0.4,1c0.3,0.3,0.6,0.4,1,0.4s0.8-0.1,1-0.4c0.3-0.3,0.4-0.6,0.4-1V79
			c0-0.4-0.1-0.8-0.4-1.1C34.8,77.7,34.4,77.5,34,77.5z M32.1,88.4c-0.4,0.8-1,1.5-1.7,2c-0.7,0.5-1.6,0.7-2.5,0.7
			c-0.9,0-1.8-0.2-2.5-0.7c-0.7-0.5-1.3-1.1-1.7-2c-0.4-0.8-0.6-1.8-0.6-2.8c0-1.1,0.2-2,0.6-2.8c0.4-0.8,1-1.5,1.7-2
			c0.7-0.5,1.6-0.7,2.5-0.7c0.9,0,1.8,0.2,2.5,0.7c0.7,0.5,1.3,1.2,1.7,2c0.4,0.8,0.6,1.8,0.6,2.8C32.7,86.6,32.5,87.6,32.1,88.4z
			 M48.8,77.8c-0.4-0.3-0.8-0.4-1.3-0.4c-1.1,0-2.1,0.3-3,0.9c-0.9,0.6-1.5,1.4-2,2.4v-1.5c0-0.4-0.1-0.7-0.4-1
			c-0.3-0.3-0.6-0.4-1-0.4c-0.4,0-0.7,0.1-1,0.4c-0.3,0.3-0.4,0.6-0.4,1V92c0,0.4,0.1,0.8,0.4,1c0.3,0.3,0.6,0.4,1,0.4
			s0.8-0.1,1-0.4c0.3-0.3,0.4-0.6,0.4-1v-7.2c0-0.9,0.2-1.8,0.6-2.5c0.4-0.8,0.8-1.3,1.4-1.8c0.6-0.4,1.2-0.6,1.8-0.6
			c0.2,0,0.6,0.1,1,0.2c0.4,0.1,0.6,0.2,0.8,0.2c0.4,0,0.7-0.1,0.9-0.4c0.2-0.2,0.4-0.6,0.4-1.1C49.4,78.4,49.2,78.1,48.8,77.8z
			 M64.1,71.3c-0.4,0-0.8,0.1-1,0.4c-0.3,0.3-0.4,0.6-0.4,1v7c-0.6-0.7-1.3-1.3-2.2-1.7c-0.9-0.4-1.9-0.7-2.9-0.7
			c-1.3,0-2.5,0.4-3.6,1c-1.1,0.7-2,1.7-2.6,2.9c-0.6,1.3-0.9,2.7-0.9,4.2s0.3,3,1,4.2C52,91,52.9,92,54,92.7c1.1,0.7,2.3,1,3.7,1
			c1,0,2-0.3,2.9-0.8c0.9-0.5,1.6-1.1,2.1-1.8V92c0,0.4,0.1,0.8,0.4,1c0.3,0.3,0.6,0.4,1,0.4c0.4,0,0.8-0.1,1-0.4
			c0.3-0.3,0.4-0.6,0.4-1V72.7c0-0.4-0.1-0.8-0.4-1C64.9,71.4,64.6,71.3,64.1,71.3z M62.2,88.4c-0.4,0.8-1,1.5-1.7,2
			c-0.7,0.5-1.6,0.7-2.5,0.7c-0.9,0-1.8-0.2-2.5-0.7c-0.7-0.5-1.3-1.1-1.7-2c-0.4-0.8-0.6-1.8-0.6-2.8c0-1,0.2-2,0.6-2.8
			c0.4-0.8,1-1.5,1.7-2c0.7-0.5,1.6-0.7,2.5-0.7c0.9,0,1.8,0.2,2.5,0.7c0.7,0.5,1.3,1.1,1.7,2c0.4,0.9,0.6,1.8,0.6,2.8
			C62.9,86.6,62.6,87.6,62.2,88.4z M88.2,77.6c-0.7,0-1.2,0.3-1.4,0.9l-3.5,10l-2.9-7.4c-0.2-0.6-0.6-0.9-1.2-0.9
			c-0.6,0-1.1,0.3-1.3,0.9L75,88.6l-3.6-10.1c-0.2-0.6-0.6-0.9-1.3-0.9c-0.4,0-0.8,0.1-1,0.4c-0.3,0.3-0.4,0.6-0.4,1
			c0,0.2,0,0.4,0.1,0.6l4.7,13c0.1,0.3,0.3,0.5,0.6,0.7c0.3,0.2,0.6,0.2,0.9,0.2c0.3,0,0.5-0.1,0.7-0.3c0.2-0.2,0.4-0.4,0.5-0.6
			l2.9-8.2l3.1,8.2c0.3,0.6,0.7,0.9,1.2,0.9c0.3,0,0.6,0,0.9-0.2c0.3-0.2,0.5-0.4,0.6-0.7l4.6-13c0.1-0.2,0.1-0.4,0.1-0.6
			c0-0.4-0.1-0.8-0.4-1C88.9,77.7,88.5,77.6,88.2,77.6z M105.5,77.5c-0.4,0-0.8,0.1-1,0.4c-0.3,0.3-0.4,0.6-0.4,1v0.7
			c-0.5-0.7-1.3-1.2-2.2-1.7c-0.9-0.4-1.9-0.7-3-0.7c-1.3,0-2.5,0.4-3.6,1c-1.1,0.7-2,1.7-2.6,2.9c-0.6,1.3-0.9,2.7-0.9,4.2
			s0.3,3,0.9,4.2c0.6,1.3,1.5,2.2,2.6,2.9c1.1,0.7,2.3,1,3.7,1c1,0,2-0.2,2.9-0.7c0.9-0.5,1.6-1.1,2.1-1.8V92c0,0.4,0.1,0.8,0.4,1
			c0.3,0.3,0.6,0.4,1,0.4c0.4,0,0.8-0.1,1-0.4c0.3-0.3,0.4-0.6,0.4-1V79c0-0.4-0.1-0.8-0.4-1.1C106.3,77.7,105.9,77.5,105.5,77.5z
			 M103.6,88.4c-0.4,0.8-1,1.5-1.7,2c-0.7,0.5-1.6,0.7-2.5,0.7c-0.9,0-1.8-0.2-2.5-0.7c-0.7-0.5-1.3-1.1-1.7-2
			c-0.4-0.8-0.6-1.8-0.6-2.8c0-1.1,0.2-2,0.6-2.8c0.4-0.8,1-1.5,1.7-2c0.7-0.5,1.6-0.7,2.5-0.7c0.9,0,1.8,0.2,2.5,0.7
			c0.7,0.5,1.3,1.2,1.7,2c0.4,0.8,0.6,1.8,0.6,2.8C104.2,86.6,104,87.6,103.6,88.4z M120.4,77.8c-0.4-0.3-0.8-0.4-1.3-0.4
			c-1.1,0-2.1,0.3-3,0.9c-0.9,0.6-1.5,1.4-2,2.4v-1.5c0-0.4-0.1-0.7-0.4-1c-0.3-0.3-0.6-0.4-1-0.4c-0.4,0-0.7,0.1-1,0.4
			c-0.3,0.3-0.4,0.6-0.4,1V92c0,0.4,0.1,0.8,0.4,1c0.3,0.3,0.6,0.4,1,0.4c0.4,0,0.8-0.1,1-0.4c0.3-0.3,0.4-0.6,0.4-1v-7.2
			c0-0.9,0.2-1.8,0.6-2.5c0.4-0.8,0.8-1.3,1.4-1.8c0.6-0.4,1.2-0.6,1.8-0.6c0.2,0,0.6,0.1,1,0.2c0.4,0.1,0.6,0.2,0.8,0.2
			c0.4,0,0.7-0.1,0.9-0.4c0.2-0.2,0.4-0.6,0.4-1.1C120.9,78.4,120.7,78.1,120.4,77.8z M133,78.4c-1.1-0.7-2.3-1-3.6-1
			c-1.3,0-2.5,0.3-3.6,1c-1.1,0.7-2,1.7-2.7,2.9c-0.7,1.3-1,2.7-1,4.4c0,1.5,0.3,2.9,1,4.1c0.7,1.2,1.6,2.2,2.8,2.8
			c1.2,0.7,2.7,1,4.3,1c1,0,2-0.2,2.9-0.6c1-0.4,1.7-0.9,2.3-1.5c0.4-0.3,0.6-0.7,0.6-1.1c0-0.3-0.1-0.6-0.3-0.8
			c-0.2-0.2-0.5-0.4-0.9-0.4c-0.3,0-0.6,0.1-0.9,0.3c-0.5,0.4-1,0.8-1.6,1.1c-0.6,0.3-1.4,0.4-2.3,0.4c-1.4,0-2.6-0.4-3.6-1.3
			c-1-0.9-1.5-2-1.7-3.5h10.6c0.4,0,0.7-0.1,1-0.4c0.3-0.2,0.4-0.6,0.5-0.9c0-1.4-0.4-2.7-1.1-3.9C135,79.9,134.1,79,133,78.4z
			 M133.7,83.9h-8.8c0.3-1.3,0.8-2.3,1.6-2.9c0.8-0.6,1.8-0.9,2.9-0.9c1.1,0,2,0.3,2.9,1c0.8,0.7,1.3,1.6,1.4,2.6V83.9z M157.2,71.7
			c-0.5-0.2-1.1-0.4-1.8-0.4c-1.6,0-2.9,0.4-3.8,1.2c-0.9,0.8-1.4,1.9-1.4,3.3V78h-1.9c-0.4,0-0.7,0.1-1,0.4
			c-0.3,0.3-0.4,0.6-0.4,0.9c0,0.4,0.1,0.7,0.4,0.9c0.3,0.2,0.6,0.4,1,0.4h1.9V92c0,0.4,0.1,0.7,0.4,1c0.3,0.3,0.6,0.4,1,0.4
			c0.4,0,0.8-0.1,1-0.4c0.3-0.3,0.4-0.6,0.4-1V80.6h3c0.4,0,0.7-0.1,1-0.4c0.2-0.2,0.4-0.5,0.4-0.9c0-0.4-0.1-0.7-0.4-0.9
			c-0.3-0.2-0.6-0.4-1-0.4h-3v-2.1c0-0.6,0.2-1.1,0.5-1.5c0.3-0.4,0.8-0.6,1.5-0.6c0.3,0,0.7,0.1,1.1,0.2c0.4,0.1,0.6,0.1,0.7,0.1
			c0.3,0,0.6-0.1,0.8-0.4c0.2-0.2,0.3-0.6,0.3-0.9C158,72.3,157.7,71.9,157.2,71.7z M171,78.4c-1.2-0.7-2.5-1-4-1
			c-1.5,0-2.8,0.4-4,1c-1.2,0.7-2.2,1.7-2.9,2.9c-0.7,1.3-1.1,2.7-1.1,4.2s0.3,3,1.1,4.2c0.7,1.2,1.7,2.2,2.9,2.9c1.2,0.7,2.5,1,4,1
			c1.5,0,2.8-0.3,4-1c1.2-0.7,2.2-1.7,2.9-2.9c0.7-1.2,1-2.6,1-4.2s-0.4-3-1-4.2C173.1,80.1,172.2,79.1,171,78.4z M171.4,88.4
			c-0.4,0.8-1.1,1.5-1.8,2c-0.8,0.5-1.6,0.7-2.6,0.7c-0.9,0-1.8-0.2-2.6-0.7c-0.8-0.5-1.4-1.1-1.8-2s-0.7-1.8-0.7-2.8
			c0-1.1,0.2-2,0.7-2.9c0.5-0.8,1.1-1.5,1.8-2c0.8-0.5,1.6-0.7,2.6-0.7c0.9,0,1.8,0.2,2.6,0.7c0.8,0.5,1.4,1.1,1.8,2
			c0.5,0.9,0.7,1.8,0.7,2.9C172,86.7,171.8,87.6,171.4,88.4z M187.4,77.8c-0.4-0.3-0.8-0.4-1.3-0.4c-1.1,0-2.1,0.3-3,0.9
			c-0.9,0.6-1.5,1.4-2,2.4v-1.5c0-0.4-0.1-0.7-0.4-1c-0.3-0.3-0.6-0.4-1-0.4c-0.4,0-0.7,0.1-1,0.4c-0.3,0.3-0.4,0.6-0.4,1V92
			c0,0.4,0.1,0.8,0.4,1c0.3,0.3,0.6,0.4,1,0.4c0.4,0,0.8-0.1,1-0.4c0.3-0.3,0.4-0.6,0.4-1v-7.2c0-0.9,0.2-1.8,0.6-2.5
			c0.4-0.8,0.8-1.3,1.4-1.8c0.6-0.4,1.2-0.6,1.8-0.6c0.2,0,0.6,0.1,1,0.2c0.4,0.1,0.6,0.2,0.8,0.2c0.4,0,0.7-0.1,0.9-0.4
			c0.2-0.2,0.4-0.6,0.4-1.1C187.9,78.4,187.8,78.1,187.4,77.8z M212.9,73.9c-1.3-0.9-3-1.4-4.8-1.4h-7.4c-0.4,0-0.7,0.1-1,0.4
			c-0.3,0.3-0.4,0.6-0.4,1V92c0,0.4,0.1,0.7,0.4,1c0.3,0.3,0.6,0.4,1,0.4h7.4c1.9,0,3.5-0.5,4.8-1.4c1.3-0.9,2.3-2.2,3-3.8
			c0.7-1.6,1-3.4,1-5.3c0-1.9-0.3-3.7-1-5.3C215.3,76.1,214.2,74.8,212.9,73.9z M212.4,88.5c-1,1.5-2.5,2.2-4.6,2.2h-5.5V75.2h5.5
			c2,0,3.5,0.7,4.6,2.2c1,1.5,1.5,3.3,1.5,5.5C213.9,85.2,213.4,87.1,212.4,88.5z M233.2,77.5c-0.4,0-0.8,0.1-1,0.4
			c-0.3,0.3-0.4,0.6-0.4,1v0.7c-0.5-0.7-1.3-1.2-2.2-1.7c-0.9-0.4-1.9-0.7-3-0.7c-1.3,0-2.5,0.4-3.6,1c-1.1,0.7-2,1.7-2.6,2.9
			c-0.6,1.3-0.9,2.7-0.9,4.2s0.3,3,0.9,4.2c0.6,1.3,1.5,2.2,2.6,2.9c1.1,0.7,2.3,1,3.7,1c1,0,2-0.2,2.9-0.7c0.9-0.5,1.6-1.1,2.1-1.8
			V92c0,0.4,0.1,0.8,0.4,1c0.3,0.3,0.6,0.4,1,0.4s0.8-0.1,1-0.4c0.3-0.3,0.4-0.6,0.4-1V79c0-0.4-0.1-0.8-0.4-1.1
			C233.9,77.7,233.6,77.5,233.2,77.5z M231.3,88.4c-0.4,0.8-1,1.5-1.7,2c-0.7,0.5-1.6,0.7-2.5,0.7c-0.9,0-1.8-0.2-2.5-0.7
			c-0.7-0.5-1.3-1.1-1.7-2c-0.4-0.8-0.6-1.8-0.6-2.8c0-1.1,0.2-2,0.6-2.8c0.4-0.8,1-1.5,1.7-2c0.7-0.5,1.6-0.7,2.5-0.7
			c0.9,0,1.8,0.2,2.5,0.7c0.7,0.5,1.3,1.2,1.7,2c0.4,0.8,0.6,1.8,0.6,2.8C231.9,86.6,231.7,87.6,231.3,88.4z M245.6,77.9h-2.5v-2.5
			c0-0.4-0.1-0.7-0.4-1c-0.3-0.3-0.6-0.4-1-0.4c-0.4,0-0.8,0.1-1,0.4c-0.3,0.3-0.4,0.6-0.4,1v2.5h-1.7c-0.4,0-0.7,0.1-0.9,0.4
			c-0.3,0.2-0.4,0.6-0.4,0.9c0,0.4,0.1,0.7,0.4,0.9c0.2,0.3,0.6,0.4,0.9,0.4h1.7v9.1c0,1.2,0.2,2,0.6,2.6c0.4,0.6,0.9,0.9,1.5,1.1
			c0.5,0.1,1.2,0.2,1.8,0.2c0.6,0,1.1-0.2,1.6-0.5s0.7-0.7,0.7-1.1c0-0.3-0.1-0.6-0.3-0.8c-0.2-0.2-0.4-0.3-0.7-0.3
			c-0.1,0-0.3,0-0.6,0.1c-0.2,0.1-0.4,0.1-0.6,0.1c-0.9,0-1.4-0.5-1.4-1.5v-8.9h2.5c0.4,0,0.7-0.1,0.9-0.4c0.2-0.2,0.4-0.5,0.4-0.9
			c0-0.4-0.1-0.7-0.4-0.9C246.3,78,246,77.9,245.6,77.9z M263,77.5c-0.4,0-0.8,0.1-1,0.4c-0.3,0.3-0.4,0.6-0.4,1v0.7
			c-0.5-0.7-1.3-1.2-2.2-1.7c-0.9-0.4-1.9-0.7-3-0.7c-1.3,0-2.5,0.4-3.6,1c-1.1,0.7-2,1.7-2.6,2.9c-0.6,1.3-0.9,2.7-0.9,4.2
			s0.3,3,0.9,4.2c0.6,1.3,1.5,2.2,2.6,2.9c1.1,0.7,2.3,1,3.7,1c1,0,2-0.2,2.9-0.7c0.9-0.5,1.6-1.1,2.1-1.8V92c0,0.4,0.1,0.8,0.4,1
			c0.3,0.3,0.6,0.4,1,0.4c0.4,0,0.8-0.1,1-0.4c0.3-0.3,0.4-0.6,0.4-1V79c0-0.4-0.1-0.8-0.4-1.1C263.7,77.7,263.4,77.5,263,77.5z
			 M261.1,88.4c-0.4,0.8-1,1.5-1.7,2c-0.7,0.5-1.6,0.7-2.5,0.7c-0.9,0-1.8-0.2-2.5-0.7c-0.7-0.5-1.3-1.1-1.7-2
			c-0.4-0.8-0.6-1.8-0.6-2.8c0-1.1,0.2-2,0.6-2.8c0.4-0.8,1-1.5,1.7-2c0.7-0.5,1.6-0.7,2.5-0.7c0.9,0,1.8,0.2,2.5,0.7
			c0.7,0.5,1.3,1.2,1.7,2c0.4,0.8,0.6,1.8,0.6,2.8C261.7,86.6,261.5,87.6,261.1,88.4z M291.6,89.7c-0.3,0-0.5,0.1-0.8,0.2
			c-1.2,0.7-2.5,1.1-4,1.1c-1.4,0-2.7-0.3-3.9-0.9c-1.2-0.6-2.1-1.5-2.7-2.7s-1-2.6-1-4.3c0-1.5,0.3-2.9,1-4.1
			c0.6-1.2,1.5-2.1,2.7-2.8c1.1-0.7,2.5-1,4-1c1.4,0,2.8,0.4,4,1c0.3,0.1,0.5,0.2,0.8,0.2c0.4,0,0.7-0.2,1-0.5
			c0.2-0.3,0.4-0.6,0.4-1c0-0.5-0.2-0.9-0.7-1.2c-1.7-1-3.5-1.4-5.5-1.4c-2,0-3.8,0.5-5.5,1.4c-1.6,0.9-2.9,2.2-3.8,3.8
			c-0.9,1.6-1.4,3.5-1.4,5.5c0,2.2,0.5,4.1,1.5,5.8c1,1.6,2.3,2.9,3.9,3.8c1.6,0.9,3.4,1.3,5.4,1.3c0.9,0,1.9-0.1,2.9-0.4
			c1-0.3,1.8-0.6,2.6-1c0.2-0.1,0.4-0.3,0.5-0.5c0.1-0.2,0.2-0.4,0.2-0.7c0-0.3-0.1-0.7-0.4-1C292.4,89.8,292.1,89.7,291.6,89.7z
			 M307.1,78.4c-1.2-0.7-2.5-1-4-1c-1.5,0-2.8,0.4-4,1c-1.2,0.7-2.2,1.7-2.9,2.9c-0.7,1.3-1,2.7-1,4.2s0.3,3,1,4.2
			c0.7,1.2,1.7,2.2,2.9,2.9c1.2,0.7,2.5,1,4,1c1.5,0,2.8-0.3,4-1c1.2-0.7,2.2-1.7,2.9-2.9c0.7-1.2,1.1-2.6,1.1-4.2s-0.4-3-1.1-4.2
			C309.2,80.1,308.3,79.1,307.1,78.4z M307.5,88.4c-0.5,0.8-1.1,1.5-1.8,2c-0.8,0.5-1.6,0.7-2.6,0.7c-0.9,0-1.8-0.2-2.6-0.7
			c-0.8-0.5-1.4-1.1-1.8-2c-0.5-0.8-0.7-1.8-0.7-2.8c0-1.1,0.2-2,0.7-2.9c0.4-0.8,1.1-1.5,1.8-2c0.8-0.5,1.6-0.7,2.6-0.7
			c0.9,0,1.8,0.2,2.6,0.7c0.8,0.5,1.4,1.1,1.8,2c0.4,0.9,0.7,1.8,0.7,2.9C308.1,86.7,307.9,87.6,307.5,88.4z M332.3,77.5
			c-1.1,0-2.2,0.3-3.2,1c-1,0.7-1.8,1.4-2.2,2.3c-0.7-2.2-2.4-3.3-4.8-3.3c-1,0-2,0.3-2.8,0.8c-0.9,0.5-1.6,1.2-2.1,2v-1.1
			c0-0.4-0.1-0.7-0.4-1c-0.3-0.3-0.6-0.4-1-0.4c-0.4,0-0.7,0.1-1,0.4c-0.3,0.3-0.4,0.6-0.4,1V92c0,0.4,0.1,0.8,0.4,1
			c0.3,0.3,0.6,0.4,1,0.4s0.8-0.1,1-0.4c0.3-0.3,0.4-0.6,0.4-1v-8c0-1.1,0.4-2,1.2-2.8c0.8-0.8,1.7-1.1,2.9-1.1c1.2,0,2,0.4,2.5,1.1
			c0.5,0.7,0.8,1.7,0.8,2.8v8c0,0.4,0.1,0.8,0.4,1c0.3,0.3,0.6,0.4,1,0.4s0.8-0.1,1-0.4c0.3-0.3,0.4-0.6,0.4-1v-8
			c0-0.7,0.2-1.4,0.5-2c0.3-0.6,0.8-1.1,1.5-1.4c0.6-0.3,1.3-0.5,2.1-0.5c2.2,0,3.3,1.3,3.3,3.9v8c0,0.4,0.1,0.7,0.4,1
			c0.3,0.3,0.6,0.4,1,0.4c0.4,0,0.8-0.1,1-0.4c0.3-0.3,0.4-0.6,0.4-1v-8C337.6,79.6,335.8,77.5,332.3,77.5z M359.8,77.5
			c-1.1,0-2.2,0.3-3.2,1c-1,0.7-1.8,1.4-2.2,2.3c-0.7-2.2-2.4-3.3-4.8-3.3c-1,0-2,0.3-2.8,0.8c-0.9,0.5-1.6,1.2-2.1,2v-1.1
			c0-0.4-0.1-0.7-0.4-1c-0.3-0.3-0.6-0.4-1-0.4c-0.4,0-0.7,0.1-1,0.4c-0.3,0.3-0.4,0.6-0.4,1V92c0,0.4,0.1,0.8,0.4,1
			c0.3,0.3,0.6,0.4,1,0.4c0.4,0,0.8-0.1,1-0.4c0.3-0.3,0.4-0.6,0.4-1v-8c0-1.1,0.4-2,1.2-2.8c0.8-0.8,1.7-1.1,2.9-1.1
			c1.2,0,2,0.4,2.5,1.1c0.5,0.7,0.8,1.7,0.8,2.8v8c0,0.4,0.1,0.8,0.4,1c0.3,0.3,0.6,0.4,1,0.4c0.4,0,0.8-0.1,1-0.4
			c0.3-0.3,0.4-0.6,0.4-1v-8c0-0.7,0.2-1.4,0.5-2c0.3-0.6,0.8-1.1,1.5-1.4c0.6-0.3,1.3-0.5,2.1-0.5c2.2,0,3.3,1.3,3.3,3.9v8
			c0,0.4,0.1,0.7,0.4,1c0.3,0.3,0.6,0.4,1,0.4c0.4,0,0.8-0.1,1-0.4c0.3-0.3,0.4-0.6,0.4-1v-8C365.1,79.6,363.3,77.5,359.8,77.5z
			 M381.1,77.7c-0.4,0-0.7,0.1-1,0.4c-0.3,0.3-0.4,0.6-0.4,1v8c0,1.3-0.3,2.3-1,2.9c-0.6,0.7-1.6,1-2.8,1c-2.5,0-3.7-1.3-3.7-3.9v-8
			c0-0.4-0.1-0.7-0.4-1c-0.3-0.3-0.6-0.4-1-0.4c-0.4,0-0.7,0.1-1,0.4c-0.3,0.3-0.4,0.6-0.4,1v8c0,2.1,0.6,3.7,1.7,4.8
			c1.1,1.2,2.7,1.7,4.8,1.7c2.1,0,3.7-0.6,4.9-1.7c1.1-1.1,1.7-2.8,1.7-4.8v-8c0-0.4-0.1-0.7-0.4-1
			C381.8,77.9,381.5,77.7,381.1,77.7z M394.8,77.4c-1.1,0-2.1,0.3-3,0.8c-0.9,0.6-1.7,1.2-2.2,2v-1.1c0-0.4-0.1-0.7-0.4-1
			c-0.3-0.3-0.6-0.4-1-0.4c-0.4,0-0.7,0.1-1,0.4c-0.3,0.3-0.4,0.6-0.4,1V92c0,0.4,0.1,0.8,0.4,1c0.3,0.3,0.6,0.4,1,0.4
			s0.8-0.1,1-0.4c0.3-0.3,0.4-0.6,0.4-1v-8.1c0-0.7,0.2-1.3,0.6-1.9c0.4-0.6,0.9-1.1,1.5-1.4c0.6-0.3,1.4-0.5,2.2-0.5
			c1.2,0,2.1,0.4,2.6,1c0.5,0.7,0.8,1.6,0.8,2.8V92c0,0.4,0.1,0.7,0.4,1c0.3,0.3,0.6,0.4,1,0.4c0.4,0,0.8-0.1,1-0.4
			c0.3-0.3,0.4-0.6,0.4-1v-8.2C400.2,79.5,398.4,77.4,394.8,77.4z M405.7,72.5c-0.6,0-1,0.1-1.2,0.3c-0.3,0.2-0.4,0.5-0.4,1v0.5
			c0,0.5,0.1,0.8,0.4,1c0.2,0.2,0.7,0.3,1.2,0.3c0.6,0,1-0.1,1.2-0.3c0.3-0.2,0.4-0.5,0.4-1v-0.5c0-0.5-0.1-0.8-0.4-1
			C406.7,72.6,406.3,72.5,405.7,72.5z M405.7,77.6c-0.4,0-0.7,0.1-1,0.4c-0.3,0.3-0.4,0.6-0.4,1v13c0,0.4,0.1,0.7,0.4,1
			c0.3,0.3,0.6,0.4,1,0.4c0.4,0,0.8-0.1,1-0.4c0.3-0.3,0.4-0.6,0.4-1V79c0-0.4-0.1-0.7-0.4-1C406.5,77.7,406.1,77.6,405.7,77.6z
			 M422.4,89.8c-0.2,0-0.4,0-0.6,0.1c-0.1,0.1-0.3,0.2-0.5,0.4c-0.2,0.2-0.4,0.3-0.6,0.4c-0.6,0.3-1.5,0.5-2.5,0.5
			c-1,0-1.9-0.2-2.7-0.7c-0.8-0.5-1.4-1.1-1.8-2c-0.4-0.8-0.6-1.8-0.6-2.8c0-1,0.2-2,0.7-2.8c0.4-0.8,1.1-1.5,1.9-2
			c0.8-0.5,1.7-0.7,2.8-0.7c0.4,0,0.8,0,1.2,0.1c0.4,0.1,0.8,0.2,1,0.3c0.3,0.2,0.5,0.3,0.6,0.4c0.3,0.2,0.5,0.3,0.6,0.4
			c0.2,0.1,0.4,0.1,0.6,0.1c0.3,0,0.6-0.1,0.8-0.4c0.2-0.3,0.3-0.6,0.3-0.9c0-0.8-0.5-1.4-1.6-1.9c-1-0.5-2.4-0.8-3.9-0.8
			c-1.5,0-2.9,0.4-4,1.1c-1.2,0.7-2.1,1.7-2.8,2.9c-0.7,1.3-1,2.6-1,4.2c0,1.5,0.3,2.9,0.9,4.2c0.6,1.3,1.5,2.2,2.7,2.9
			c1.2,0.7,2.5,1.1,4,1.1c1,0,2-0.1,2.9-0.4c0.9-0.3,1.6-0.6,2.1-1c0.5-0.4,0.8-0.8,0.8-1.2c0-0.4-0.1-0.7-0.3-1
			C423.1,89.9,422.8,89.8,422.4,89.8z M439.4,77.5c-0.4,0-0.8,0.1-1,0.4c-0.3,0.3-0.4,0.6-0.4,1v0.7c-0.5-0.7-1.3-1.2-2.2-1.7
			c-0.9-0.4-1.9-0.7-3-0.7c-1.3,0-2.5,0.4-3.6,1c-1.1,0.7-2,1.7-2.6,2.9c-0.6,1.3-0.9,2.7-0.9,4.2s0.3,3,0.9,4.2
			c0.6,1.3,1.5,2.2,2.6,2.9c1.1,0.7,2.3,1,3.7,1c1,0,2-0.2,2.9-0.7c0.9-0.5,1.6-1.1,2.1-1.8V92c0,0.4,0.1,0.8,0.4,1
			c0.3,0.3,0.6,0.4,1,0.4s0.8-0.1,1-0.4c0.3-0.3,0.4-0.6,0.4-1V79c0-0.4-0.1-0.8-0.4-1.1C440.2,77.7,439.8,77.5,439.4,77.5z
			 M437.5,88.4c-0.4,0.8-1,1.5-1.7,2c-0.7,0.5-1.6,0.7-2.5,0.7c-0.9,0-1.8-0.2-2.5-0.7c-0.7-0.5-1.3-1.1-1.7-2
			c-0.4-0.8-0.6-1.8-0.6-2.8c0-1.1,0.2-2,0.6-2.8c0.4-0.8,1-1.5,1.7-2c0.7-0.5,1.6-0.7,2.5-0.7c0.9,0,1.8,0.2,2.5,0.7
			c0.7,0.5,1.3,1.2,1.7,2c0.4,0.8,0.6,1.8,0.6,2.8C438.1,86.6,437.9,87.6,437.5,88.4z M451.8,77.9h-2.5v-2.5c0-0.4-0.1-0.7-0.4-1
			c-0.3-0.3-0.6-0.4-1-0.4c-0.4,0-0.8,0.1-1,0.4c-0.3,0.3-0.4,0.6-0.4,1v2.5h-1.7c-0.4,0-0.7,0.1-0.9,0.4c-0.3,0.2-0.4,0.6-0.4,0.9
			c0,0.4,0.1,0.7,0.4,0.9c0.2,0.3,0.6,0.4,0.9,0.4h1.7v9.1c0,1.2,0.2,2,0.6,2.6c0.4,0.6,0.9,0.9,1.5,1.1c0.5,0.1,1.2,0.2,1.8,0.2
			c0.6,0,1.1-0.2,1.6-0.5c0.5-0.3,0.7-0.7,0.7-1.1c0-0.3-0.1-0.6-0.3-0.8c-0.2-0.2-0.4-0.3-0.7-0.3c-0.1,0-0.3,0-0.6,0.1
			c-0.2,0.1-0.4,0.1-0.6,0.1c-0.9,0-1.3-0.5-1.3-1.5v-8.9h2.5c0.4,0,0.7-0.1,0.9-0.4c0.2-0.2,0.4-0.5,0.4-0.9c0-0.4-0.1-0.7-0.4-0.9
			C452.5,78,452.2,77.9,451.8,77.9z M457.8,72.5c-0.6,0-1,0.1-1.2,0.3c-0.3,0.2-0.4,0.5-0.4,1v0.5c0,0.5,0.1,0.8,0.4,1
			c0.2,0.2,0.7,0.3,1.2,0.3c0.6,0,1-0.1,1.2-0.3c0.3-0.2,0.4-0.5,0.4-1v-0.5c0-0.5-0.1-0.8-0.4-1C458.7,72.6,458.3,72.5,457.8,72.5z
			 M457.7,77.6c-0.4,0-0.7,0.1-1,0.4c-0.3,0.3-0.4,0.6-0.4,1v13c0,0.4,0.1,0.7,0.4,1c0.3,0.3,0.6,0.4,1,0.4c0.4,0,0.8-0.1,1-0.4
			c0.3-0.3,0.4-0.6,0.4-1V79c0-0.4-0.1-0.7-0.4-1C458.5,77.7,458.2,77.6,457.7,77.6z M474.3,78.4c-1.2-0.7-2.5-1-4-1
			c-1.5,0-2.8,0.4-4,1c-1.2,0.7-2.2,1.7-2.9,2.9c-0.7,1.3-1.1,2.7-1.1,4.2s0.3,3,1.1,4.2c0.7,1.2,1.7,2.2,2.9,2.9c1.2,0.7,2.5,1,4,1
			c1.5,0,2.8-0.3,4-1c1.2-0.7,2.2-1.7,2.9-2.9c0.7-1.2,1.1-2.6,1.1-4.2s-0.4-3-1.1-4.2C476.4,80.1,475.5,79.1,474.3,78.4z
			 M474.6,88.4c-0.5,0.8-1.1,1.5-1.8,2c-0.8,0.5-1.6,0.7-2.6,0.7c-0.9,0-1.8-0.2-2.6-0.7c-0.8-0.5-1.4-1.1-1.8-2
			c-0.5-0.8-0.7-1.8-0.7-2.8c0-1.1,0.2-2,0.7-2.9c0.4-0.8,1.1-1.5,1.8-2c0.8-0.5,1.6-0.7,2.6-0.7c0.9,0,1.8,0.2,2.6,0.7
			c0.8,0.5,1.4,1.1,1.8,2c0.5,0.9,0.7,1.8,0.7,2.9C475.3,86.7,475.1,87.6,474.6,88.4z M489.5,77.4c-1.1,0-2.1,0.3-3,0.8
			c-0.9,0.6-1.7,1.2-2.2,2v-1.1c0-0.4-0.1-0.7-0.4-1c-0.3-0.3-0.6-0.4-1-0.4c-0.4,0-0.7,0.1-1,0.4c-0.3,0.3-0.4,0.6-0.4,1V92
			c0,0.4,0.1,0.8,0.4,1c0.3,0.3,0.6,0.4,1,0.4c0.4,0,0.8-0.1,1-0.4c0.3-0.3,0.4-0.6,0.4-1v-8.1c0-0.7,0.2-1.3,0.6-1.9
			c0.4-0.6,0.9-1.1,1.5-1.4c0.6-0.3,1.4-0.5,2.2-0.5c1.2,0,2.1,0.4,2.6,1c0.5,0.7,0.8,1.6,0.8,2.8V92c0,0.4,0.1,0.7,0.4,1
			c0.3,0.3,0.6,0.4,1,0.4c0.4,0,0.8-0.1,1-0.4c0.3-0.3,0.4-0.6,0.4-1v-8.2C494.9,79.5,493.1,77.4,489.5,77.4z"/>
	</g>
</g>
<g id="Vector_Smart_Object_xA0_이미지_1_">
	<g>
		<g>
			<path class="st1" d="M190.1,17.2l-2.9-5.1H185v5.1h-1.5v-12h3.8c2.4,0,4.2,0.9,4.2,3.4c0,1.9-1.1,3-2.7,3.4l3.1,5.3h-1.8V17.2z
				 M185,10.9h2c1.9,0,2.9-0.8,2.9-2.3c0-1.6-1-2.1-2.9-2.1h-2V10.9z"/>
		</g>
		<path class="st1" d="M187,21c-5.5,0-10-4.5-10-10s4.5-10,10-10s10,4.5,10,10S192.5,21,187,21z M187,2.2c-4.9,0-8.8,4-8.8,8.8
			s4,8.8,8.8,8.8c4.9,0,8.8-4,8.8-8.8S191.9,2.2,187,2.2z"/>
	</g>
</g>
</svg>
