<?xml version="1.0" encoding="utf-8"?>
<!-- Generator: Adobe Illustrator 21.1.0, SVG Export Plug-In . SVG Version: 6.00 Build 0)  -->
<svg version="1.1" xmlns="http://www.w3.org/2000/svg" xmlns:xlink="http://www.w3.org/1999/xlink" x="0px" y="0px"
	 viewBox="0 0 412 99" style="enable-background:new 0 0 412 99;" xml:space="preserve">
<style type="text/css">
	.st0{fill:#FFFFFF;}
	.st1{enable-background:new    ;}
</style>
<g id="Vector_Smart_Object_xA0_이미지_1_">
	<g>
		<g>
			<path class="st0" d="M405.1,17.6l-2.9-5.1H400v5.1h-1.5v-12h3.8c2.4,0,4.2,0.9,4.2,3.4c0,1.9-1.1,3-2.7,3.4l3.1,5.3H405.1z
				 M400,11.3h2c1.9,0,2.9-0.8,2.9-2.3c0-1.6-1-2.1-2.9-2.1h-2V11.3z"/>
		</g>
		<path class="st0" d="M402,21.4c-5.5,0-10-4.5-10-10s4.5-10,10-10c5.5,0,10,4.5,10,10S407.5,21.4,402,21.4z M402,2.6
			c-4.9,0-8.8,4-8.8,8.8s4,8.8,8.8,8.8c4.9,0,8.8-4,8.8-8.8S406.9,2.6,402,2.6z"/>
	</g>
</g>
<g id="KAKEY_CLOUD_Data_Integration_Platform_1_" class="st1">
	<g id="KAKEY_CLOUD_Data_Integration_Platform">
		<g>
			<path class="st0" d="M34.9,1.4H24.3L11.8,22v0.2l12.9,21.2h11.5L21.8,21.8L34.9,1.4z M11.6,1.4H2.4v42.1h9.2V1.4z M50,1.4
				L37.3,43.4h9.2l2.7-9.7h14.1l2.6,9.7h9.6L62.8,1.4H50z M51.3,26.2l1.7-6.1c1.5-5.3,2.4-8.8,3.1-12.4h0.2
				c0.7,3.7,1.6,6.8,3.2,12.6l1.6,5.9H51.3z M90.4,1.4h-9.2v42.1h9.2V1.4z M115,43.4l-14.4-21.6l13.1-20.5h-10.6L90.7,22v0.2
				l12.9,21.2H115z M145.7,35.9h-16.5v-10h13.6v-7.6h-13.6V8.9H145V1.4h-24.9v42.1h25.6V35.9z M163.3,43.4h9.2V29.9l14.2-28.6h-9.7
				l-8.8,19.4h-0.2l-8.6-19.4h-10.2l14.2,28.6V43.4z M223.8,4.2c4.3,0,7,1.1,8.8,2.5l2.2-2.9c-1.4-1.2-4.7-3.1-10.6-3.1
				c-10.9,0-16.9,8-16.9,21.9c0,13.1,5,21.4,16.2,21.4c5.6,0,9.2-1.4,11-3.2l-2-2.6c-1.6,1.4-4,2.3-8.4,2.3
				c-8.5,0-13.1-6.2-13.1-18.3C211.1,9.8,216,4.2,223.8,4.2z M246.7,1.4h-3.6v42.1h22.4v-3.4h-18.8V1.4z M300.5,22.2
				c0-15.4-5.9-21.4-15.8-21.4c-10.1,0-16.3,6.2-16.3,21.8c0,15.4,5.9,21.4,15.8,21.4C294.4,44,300.5,37.8,300.5,22.2z M284.6,40.6
				c-7.5,0-12.4-4.6-12.4-18.4c0-13.7,4.8-18,12.2-18c7.6,0,12.4,4.6,12.4,18.4C296.8,36.4,292.1,40.6,284.6,40.6z M335.6,29.7
				c0,8-4.3,10.9-10.8,10.9c-6.6,0-11.1-3.4-11.1-11.3V1.4h-3.6v28.3c0,9.2,5.2,14.3,14.3,14.3c9.4,0,14.8-5.3,14.8-14.7v-28h-3.6
				V29.7z M361.3,1.4h-10.5v42.1h10.3c12.2,0,18.1-6.8,18.1-21.3C379.2,7.9,373.7,1.4,361.3,1.4z M361.3,40h-6.9V4.8h6.5
				c9.5,0,14.6,4.6,14.6,17.8C375.5,35.7,370.7,40,361.3,40z M13.7,73.9c-1.3-0.9-3-1.4-4.8-1.4H1.5c-0.4,0-0.7,0.1-1,0.4
				c-0.3,0.3-0.4,0.6-0.4,1V92c0,0.4,0.1,0.7,0.4,1c0.3,0.3,0.6,0.4,1,0.4h7.4c1.9,0,3.5-0.5,4.8-1.4c1.3-0.9,2.3-2.2,3-3.8
				c0.7-1.6,1-3.4,1-5.3c0-1.9-0.3-3.7-1-5.3C16,76.1,15,74.8,13.7,73.9z M13.1,88.5c-1,1.5-2.5,2.2-4.6,2.2H3V75.2h5.5
				c2,0,3.5,0.7,4.6,2.2c1,1.5,1.5,3.3,1.5,5.5C14.7,85.2,14.2,87.1,13.1,88.5z M33.9,77.5c-0.4,0-0.8,0.1-1,0.4
				c-0.3,0.3-0.4,0.6-0.4,1v0.7C32,79,31.2,78.5,30.3,78c-0.9-0.4-1.9-0.7-3-0.7c-1.3,0-2.5,0.4-3.6,1c-1.1,0.7-2,1.7-2.6,2.9
				c-0.6,1.3-0.9,2.7-0.9,4.2s0.3,3,0.9,4.2c0.6,1.3,1.5,2.2,2.6,2.9c1.1,0.7,2.3,1,3.7,1c1,0,2-0.2,2.9-0.7
				c0.9-0.5,1.6-1.1,2.1-1.8V92c0,0.4,0.1,0.8,0.4,1c0.3,0.3,0.6,0.4,1,0.4c0.4,0,0.8-0.1,1-0.4c0.3-0.3,0.4-0.6,0.4-1V79
				c0-0.4-0.1-0.8-0.4-1.1C34.7,77.7,34.3,77.5,33.9,77.5z M32,88.4c-0.4,0.8-1,1.5-1.7,2c-0.7,0.5-1.6,0.7-2.5,0.7
				c-0.9,0-1.8-0.2-2.5-0.7c-0.7-0.5-1.3-1.1-1.7-2c-0.4-0.8-0.6-1.8-0.6-2.8c0-1.1,0.2-2,0.6-2.8c0.4-0.8,1-1.5,1.7-2
				c0.7-0.5,1.6-0.7,2.5-0.7c0.9,0,1.8,0.2,2.5,0.7c0.7,0.5,1.3,1.2,1.7,2c0.4,0.8,0.6,1.8,0.6,2.8C32.6,86.6,32.4,87.6,32,88.4z
				 M46.3,77.9h-2.5v-2.5c0-0.4-0.1-0.7-0.4-1c-0.3-0.3-0.6-0.4-1-0.4c-0.4,0-0.8,0.1-1,0.4c-0.3,0.3-0.4,0.6-0.4,1v2.5h-1.7
				c-0.4,0-0.7,0.1-0.9,0.4c-0.3,0.2-0.4,0.6-0.4,0.9c0,0.4,0.1,0.7,0.4,0.9c0.2,0.3,0.6,0.4,0.9,0.4H41v9.1c0,1.2,0.2,2,0.6,2.6
				c0.4,0.6,0.9,0.9,1.5,1.1c0.5,0.1,1.2,0.2,1.8,0.2c0.6,0,1.1-0.2,1.6-0.5c0.5-0.3,0.7-0.7,0.7-1.1c0-0.3-0.1-0.6-0.3-0.8
				c-0.2-0.2-0.4-0.3-0.7-0.3c-0.1,0-0.3,0-0.6,0.1c-0.2,0.1-0.4,0.1-0.6,0.1c-0.9,0-1.3-0.5-1.3-1.5v-8.9h2.5
				c0.4,0,0.7-0.1,0.9-0.4c0.2-0.2,0.4-0.5,0.4-0.9c0-0.4-0.1-0.7-0.4-0.9C47,78,46.7,77.9,46.3,77.9z M63.7,77.5
				c-0.4,0-0.8,0.1-1,0.4c-0.3,0.3-0.4,0.6-0.4,1v0.7c-0.5-0.7-1.3-1.2-2.2-1.7c-0.9-0.4-1.9-0.7-3-0.7c-1.3,0-2.5,0.4-3.6,1
				c-1.1,0.7-2,1.7-2.6,2.9C50.3,82.6,50,84,50,85.6s0.3,3,0.9,4.2c0.6,1.3,1.5,2.2,2.6,2.9c1.1,0.7,2.3,1,3.7,1c1,0,2-0.2,2.9-0.7
				c0.9-0.5,1.6-1.1,2.1-1.8V92c0,0.4,0.1,0.8,0.4,1c0.3,0.3,0.6,0.4,1,0.4c0.4,0,0.8-0.1,1-0.4c0.3-0.3,0.4-0.6,0.4-1V79
				c0-0.4-0.1-0.8-0.4-1.1C64.5,77.7,64.2,77.5,63.7,77.5z M61.8,88.4c-0.4,0.8-1,1.5-1.7,2c-0.7,0.5-1.6,0.7-2.5,0.7
				c-0.9,0-1.8-0.2-2.5-0.7c-0.7-0.5-1.3-1.1-1.7-2c-0.4-0.8-0.6-1.8-0.6-2.8c0-1.1,0.2-2,0.6-2.8c0.4-0.8,1-1.5,1.7-2
				c0.7-0.5,1.6-0.7,2.5-0.7c0.9,0,1.8,0.2,2.5,0.7c0.7,0.5,1.3,1.2,1.7,2c0.4,0.8,0.6,1.8,0.6,2.8C62.5,86.6,62.2,87.6,61.8,88.4z
				 M79.6,72.4c-0.4,0-0.8,0.1-1.1,0.4c-0.3,0.3-0.4,0.6-0.4,1V92c0,0.4,0.1,0.8,0.4,1.1c0.3,0.3,0.6,0.4,1.1,0.4
				c0.4,0,0.8-0.1,1.1-0.4c0.3-0.3,0.4-0.6,0.4-1.1V73.9c0-0.4-0.1-0.7-0.4-1C80.3,72.6,80,72.4,79.6,72.4z M93.7,77.4
				c-1.1,0-2.1,0.3-3,0.8c-0.9,0.6-1.7,1.2-2.2,2v-1c0-0.4-0.1-0.7-0.4-1c-0.3-0.3-0.6-0.4-1-0.4c-0.4,0-0.7,0.1-1,0.4
				c-0.3,0.3-0.4,0.6-0.4,1V92c0,0.4,0.1,0.8,0.4,1c0.3,0.3,0.6,0.4,1,0.4s0.8-0.1,1-0.4c0.3-0.3,0.4-0.6,0.4-1v-8.1
				c0-0.7,0.2-1.3,0.6-1.9c0.4-0.6,0.9-1.1,1.5-1.4c0.6-0.3,1.4-0.5,2.2-0.5c1.2,0,2.1,0.4,2.6,1c0.5,0.7,0.8,1.6,0.8,2.8V92
				c0,0.4,0.1,0.7,0.4,1c0.3,0.3,0.6,0.4,1,0.4c0.4,0,0.8-0.1,1-0.4c0.3-0.3,0.4-0.6,0.4-1v-8.2C99.1,79.5,97.3,77.4,93.7,77.4z
				 M110.1,77.9h-2.5v-2.5c0-0.4-0.1-0.7-0.4-1c-0.3-0.3-0.6-0.4-1-0.4c-0.4,0-0.8,0.1-1,0.4c-0.3,0.3-0.4,0.6-0.4,1v2.5H103
				c-0.4,0-0.7,0.1-0.9,0.4c-0.3,0.2-0.4,0.6-0.4,0.9c0,0.4,0.1,0.7,0.4,0.9c0.2,0.3,0.6,0.4,0.9,0.4h1.7v9.1c0,1.2,0.2,2,0.6,2.6
				c0.4,0.6,0.9,0.9,1.5,1.1c0.5,0.1,1.2,0.2,1.8,0.2c0.6,0,1.1-0.2,1.6-0.5c0.5-0.3,0.7-0.7,0.7-1.1c0-0.3-0.1-0.6-0.3-0.8
				c-0.2-0.2-0.4-0.3-0.7-0.3c-0.1,0-0.3,0-0.6,0.1c-0.2,0.1-0.4,0.1-0.6,0.1c-0.9,0-1.3-0.5-1.3-1.5v-8.9h2.5
				c0.4,0,0.7-0.1,0.9-0.4c0.2-0.2,0.4-0.5,0.4-0.9c0-0.4-0.1-0.7-0.4-0.9C110.8,78,110.5,77.9,110.1,77.9z M124.6,78.4
				c-1.1-0.7-2.3-1-3.6-1c-1.3,0-2.5,0.3-3.6,1c-1.1,0.7-2,1.7-2.7,2.9c-0.7,1.3-1,2.7-1,4.4c0,1.5,0.3,2.9,1,4.1
				c0.7,1.2,1.6,2.2,2.8,2.8c1.2,0.7,2.7,1,4.3,1c1,0,2-0.2,2.9-0.6c1-0.4,1.7-0.9,2.3-1.5c0.4-0.3,0.6-0.7,0.6-1.1
				c0-0.3-0.1-0.6-0.3-0.8c-0.2-0.2-0.5-0.4-0.9-0.4c-0.3,0-0.6,0.1-0.9,0.3c-0.5,0.4-1,0.8-1.6,1.1c-0.6,0.3-1.4,0.4-2.3,0.4
				c-1.4,0-2.6-0.4-3.6-1.3c-1-0.9-1.5-2-1.7-3.5H127c0.4,0,0.7-0.1,1-0.4c0.3-0.2,0.4-0.6,0.5-0.9c0-1.4-0.4-2.7-1-3.9
				C126.7,79.9,125.8,79,124.6,78.4z M125.4,83.9h-8.8c0.3-1.3,0.8-2.3,1.6-2.9c0.8-0.6,1.8-0.9,2.9-0.9c1.1,0,2,0.3,2.9,1
				c0.8,0.7,1.3,1.6,1.4,2.6V83.9z M144.7,77.5c-0.4,0-0.8,0.1-1,0.4c-0.3,0.3-0.4,0.6-0.4,1v1c-0.5-0.7-1.3-1.3-2.2-1.8
				c-1-0.5-2-0.8-3.1-0.8c-1.4,0-2.6,0.4-3.7,1c-1.1,0.7-2,1.7-2.7,2.9c-0.7,1.3-1,2.7-1,4.2s0.3,3,1,4.2c0.6,1.3,1.5,2.2,2.7,2.9
				c1.1,0.7,2.4,1,3.8,1c1.1,0,2.1-0.3,3.1-0.8c1-0.6,1.7-1.2,2.1-2v1.6c0,1.3-0.4,2.4-1.3,3.2c-0.9,0.8-2.1,1.2-3.7,1.2
				c-0.9,0-2.2-0.3-3.8-0.9c-0.3-0.1-0.6-0.2-0.8-0.2c-0.5,0-0.9,0.2-1.1,0.8c-0.1,0.2-0.1,0.4-0.1,0.5c0,0.5,0.3,0.9,0.9,1.2
				c0.3,0.3,1,0.6,2.1,0.9c1.1,0.3,2,0.4,2.8,0.4c1.5,0,2.8-0.3,4-0.8c1.2-0.5,2.1-1.3,2.8-2.4c0.7-1.1,1-2.4,1-4.1V79
				c0-0.4-0.1-0.8-0.4-1.1C145.4,77.7,145.1,77.5,144.7,77.5z M142.7,88.4c-0.4,0.9-1,1.5-1.8,2c-0.8,0.5-1.6,0.7-2.6,0.7
				c-1,0-1.8-0.2-2.6-0.7c-0.8-0.5-1.4-1.1-1.8-2c-0.4-0.8-0.6-1.8-0.6-2.8c0-1,0.2-2,0.6-2.8c0.4-0.8,1-1.5,1.8-2
				c0.8-0.5,1.6-0.7,2.6-0.7c1,0,1.8,0.2,2.6,0.7c0.8,0.5,1.4,1.1,1.8,2c0.4,0.8,0.6,1.8,0.6,2.8C143.4,86.6,143.2,87.6,142.7,88.4z
				 M159.5,77.8c-0.4-0.3-0.8-0.4-1.3-0.4c-1.1,0-2.1,0.3-3,0.9c-0.9,0.6-1.5,1.4-2,2.4v-1.5c0-0.4-0.1-0.7-0.4-1
				c-0.3-0.3-0.6-0.4-1-0.4c-0.4,0-0.7,0.1-1,0.4c-0.3,0.3-0.4,0.6-0.4,1V92c0,0.4,0.1,0.8,0.4,1c0.3,0.3,0.6,0.4,1,0.4
				s0.8-0.1,1-0.4c0.3-0.3,0.4-0.6,0.4-1v-7.2c0-0.9,0.2-1.8,0.6-2.5c0.4-0.8,0.8-1.3,1.4-1.8c0.6-0.4,1.2-0.6,1.8-0.6
				c0.2,0,0.6,0.1,1,0.2c0.4,0.1,0.6,0.2,0.8,0.2c0.4,0,0.7-0.1,0.9-0.4c0.2-0.2,0.4-0.6,0.4-1.1C160.1,78.4,159.9,78,159.5,77.8z
				 M175.1,77.5c-0.4,0-0.8,0.1-1,0.4c-0.3,0.3-0.4,0.6-0.4,1v0.7c-0.5-0.7-1.3-1.2-2.2-1.7c-0.9-0.4-1.9-0.7-3-0.7
				c-1.3,0-2.5,0.4-3.6,1c-1.1,0.7-2,1.7-2.6,2.9c-0.6,1.3-0.9,2.7-0.9,4.2s0.3,3,0.9,4.2c0.6,1.3,1.5,2.2,2.6,2.9
				c1.1,0.7,2.3,1,3.7,1c1,0,2-0.2,2.9-0.7c0.9-0.5,1.6-1.1,2.1-1.8V92c0,0.4,0.1,0.8,0.4,1c0.3,0.3,0.6,0.4,1,0.4
				c0.4,0,0.8-0.1,1-0.4c0.3-0.3,0.4-0.6,0.4-1V79c0-0.4-0.1-0.8-0.4-1.1C175.9,77.7,175.6,77.5,175.1,77.5z M173.2,88.4
				c-0.4,0.8-1,1.5-1.7,2c-0.7,0.5-1.6,0.7-2.5,0.7c-0.9,0-1.8-0.2-2.5-0.7c-0.7-0.5-1.3-1.1-1.7-2c-0.4-0.8-0.6-1.8-0.6-2.8
				c0-1.1,0.2-2,0.6-2.8c0.4-0.8,1-1.5,1.7-2c0.7-0.5,1.6-0.7,2.5-0.7c0.9,0,1.8,0.2,2.5,0.7c0.7,0.5,1.3,1.2,1.7,2
				c0.4,0.8,0.6,1.8,0.6,2.8C173.8,86.6,173.6,87.6,173.2,88.4z M187.6,77.9h-2.5v-2.5c0-0.4-0.1-0.7-0.4-1c-0.3-0.3-0.6-0.4-1-0.4
				c-0.4,0-0.8,0.1-1,0.4c-0.3,0.3-0.4,0.6-0.4,1v2.5h-1.7c-0.4,0-0.7,0.1-0.9,0.4c-0.3,0.2-0.4,0.6-0.4,0.9c0,0.4,0.1,0.7,0.4,0.9
				c0.2,0.3,0.6,0.4,0.9,0.4h1.7v9.1c0,1.2,0.2,2,0.6,2.6c0.4,0.6,0.9,0.9,1.5,1.1c0.5,0.1,1.2,0.2,1.8,0.2c0.6,0,1.1-0.2,1.6-0.5
				c0.5-0.3,0.7-0.7,0.7-1.1c0-0.3-0.1-0.6-0.3-0.8c-0.2-0.2-0.4-0.3-0.7-0.3c-0.1,0-0.3,0-0.6,0.1c-0.2,0.1-0.4,0.1-0.6,0.1
				c-0.9,0-1.3-0.5-1.3-1.5v-8.9h2.5c0.4,0,0.7-0.1,0.9-0.4c0.2-0.2,0.4-0.5,0.4-0.9c0-0.4-0.1-0.7-0.4-0.9
				C188.2,78,187.9,77.9,187.6,77.9z M193.5,72.5c-0.6,0-1,0.1-1.2,0.3c-0.3,0.2-0.4,0.5-0.4,1v0.5c0,0.5,0.1,0.8,0.4,1
				c0.2,0.2,0.7,0.3,1.2,0.3c0.6,0,1-0.1,1.2-0.3c0.3-0.2,0.4-0.5,0.4-1v-0.5c0-0.5-0.1-0.8-0.4-1C194.5,72.6,194.1,72.5,193.5,72.5
				z M193.5,77.6c-0.4,0-0.7,0.1-1,0.4c-0.3,0.3-0.4,0.6-0.4,1v13c0,0.4,0.1,0.7,0.4,1c0.3,0.3,0.6,0.4,1,0.4c0.4,0,0.8-0.1,1-0.4
				c0.3-0.3,0.4-0.6,0.4-1V79c0-0.4-0.1-0.7-0.4-1C194.2,77.7,193.9,77.6,193.5,77.6z M210,78.4c-1.2-0.7-2.5-1-4-1
				c-1.5,0-2.8,0.4-4,1c-1.2,0.7-2.2,1.7-2.9,2.9c-0.7,1.3-1,2.7-1,4.2s0.3,3,1,4.2c0.7,1.2,1.7,2.2,2.9,2.9c1.2,0.7,2.5,1,4,1
				c1.5,0,2.8-0.3,4-1c1.2-0.7,2.2-1.7,2.9-2.9c0.7-1.2,1-2.6,1-4.2s-0.4-3-1-4.2C212.1,80.1,211.2,79.1,210,78.4z M210.4,88.4
				c-0.5,0.8-1.1,1.5-1.8,2c-0.8,0.5-1.6,0.7-2.6,0.7c-0.9,0-1.8-0.2-2.6-0.7c-0.8-0.5-1.4-1.1-1.8-2c-0.5-0.8-0.7-1.8-0.7-2.8
				c0-1.1,0.2-2,0.7-2.9c0.4-0.8,1.1-1.5,1.8-2c0.8-0.5,1.6-0.7,2.6-0.7c0.9,0,1.8,0.2,2.6,0.7c0.8,0.5,1.4,1.1,1.8,2
				c0.4,0.9,0.7,1.8,0.7,2.9C211,86.6,210.8,87.6,210.4,88.4z M225.2,77.4c-1.1,0-2.1,0.3-3,0.8c-0.9,0.6-1.7,1.2-2.2,2v-1
				c0-0.4-0.1-0.7-0.4-1c-0.3-0.3-0.6-0.4-1-0.4c-0.4,0-0.7,0.1-1,0.4c-0.3,0.3-0.4,0.6-0.4,1V92c0,0.4,0.1,0.8,0.4,1
				c0.3,0.3,0.6,0.4,1,0.4s0.8-0.1,1-0.4c0.3-0.3,0.4-0.6,0.4-1v-8.1c0-0.7,0.2-1.3,0.6-1.9c0.4-0.6,0.9-1.1,1.5-1.4
				c0.6-0.3,1.4-0.5,2.2-0.5c1.2,0,2.1,0.4,2.6,1c0.5,0.7,0.8,1.6,0.8,2.8V92c0,0.4,0.1,0.7,0.4,1c0.3,0.3,0.6,0.4,1,0.4
				c0.4,0,0.8-0.1,1-0.4c0.3-0.3,0.4-0.6,0.4-1v-8.2C230.6,79.5,228.8,77.4,225.2,77.4z M254.9,73.3c-0.9-0.6-1.9-0.9-2.9-0.9h-7
				c-0.4,0-0.7,0.1-1,0.4c-0.3,0.3-0.4,0.6-0.4,1V92c0,0.4,0.1,0.8,0.4,1c0.2,0.3,0.6,0.4,1,0.4c0.4,0,0.7-0.1,1-0.4
				c0.3-0.3,0.4-0.6,0.4-1v-6.6h5.6c1.1,0,2-0.3,2.9-0.9c0.9-0.6,1.6-1.4,2.1-2.4c0.5-1,0.8-2.1,0.8-3.3c0-1.2-0.3-2.3-0.8-3.2
				C256.5,74.6,255.8,73.9,254.9,73.3z M254.5,80.7c-0.3,0.6-0.6,1-1.1,1.4c-0.5,0.4-1,0.5-1.5,0.5h-5.6v-7.4h5.6
				c0.8,0,1.5,0.4,2.1,1.1c0.6,0.7,0.9,1.6,0.9,2.6C254.9,79.5,254.8,80.1,254.5,80.7z M262.9,71.2c-0.4,0-0.7,0.1-1,0.4
				c-0.3,0.3-0.4,0.6-0.4,1V92c0,0.4,0.1,0.7,0.4,1c0.3,0.3,0.6,0.4,1,0.4c0.4,0,0.7-0.1,1-0.4c0.3-0.3,0.4-0.6,0.4-1V72.7
				c0-0.4-0.1-0.7-0.4-1C263.6,71.4,263.3,71.2,262.9,71.2z M281.5,77.5c-0.4,0-0.8,0.1-1,0.4c-0.3,0.3-0.4,0.6-0.4,1v0.7
				c-0.5-0.7-1.3-1.2-2.2-1.7c-0.9-0.4-1.9-0.7-3-0.7c-1.3,0-2.5,0.4-3.6,1c-1.1,0.7-2,1.7-2.6,2.9c-0.6,1.3-0.9,2.7-0.9,4.2
				s0.3,3,0.9,4.2c0.6,1.3,1.5,2.2,2.6,2.9c1.1,0.7,2.3,1,3.7,1c1,0,2-0.2,2.9-0.7c0.9-0.5,1.6-1.1,2.1-1.8V92c0,0.4,0.1,0.8,0.4,1
				c0.3,0.3,0.6,0.4,1,0.4c0.4,0,0.8-0.1,1-0.4c0.3-0.3,0.4-0.6,0.4-1V79c0-0.4-0.1-0.8-0.4-1.1C282.3,77.7,281.9,77.5,281.5,77.5z
				 M279.6,88.4c-0.4,0.8-1,1.5-1.7,2c-0.7,0.5-1.6,0.7-2.5,0.7c-0.9,0-1.8-0.2-2.5-0.7c-0.7-0.5-1.3-1.1-1.7-2
				c-0.4-0.8-0.6-1.8-0.6-2.8c0-1.1,0.2-2,0.6-2.8c0.4-0.8,1-1.5,1.7-2c0.7-0.5,1.6-0.7,2.5-0.7c0.9,0,1.8,0.2,2.5,0.7
				c0.7,0.5,1.3,1.2,1.7,2c0.4,0.8,0.6,1.8,0.6,2.8C280.2,86.6,280,87.6,279.6,88.4z M293.9,77.9h-2.5v-2.5c0-0.4-0.1-0.7-0.4-1
				c-0.3-0.3-0.6-0.4-1-0.4c-0.4,0-0.8,0.1-1,0.4c-0.3,0.3-0.4,0.6-0.4,1v2.5h-1.7c-0.4,0-0.7,0.1-0.9,0.4c-0.3,0.2-0.4,0.6-0.4,0.9
				c0,0.4,0.1,0.7,0.4,0.9c0.2,0.3,0.6,0.4,0.9,0.4h1.7v9.1c0,1.2,0.2,2,0.6,2.6c0.4,0.6,0.9,0.9,1.5,1.1c0.5,0.1,1.2,0.2,1.8,0.2
				c0.6,0,1.1-0.2,1.6-0.5c0.5-0.3,0.7-0.7,0.7-1.1c0-0.3-0.1-0.6-0.3-0.8c-0.2-0.2-0.4-0.3-0.7-0.3c-0.1,0-0.3,0-0.6,0.1
				c-0.2,0.1-0.4,0.1-0.6,0.1c-0.9,0-1.3-0.5-1.3-1.5v-8.9h2.5c0.4,0,0.7-0.1,0.9-0.4c0.2-0.2,0.4-0.5,0.4-0.9
				c0-0.4-0.1-0.7-0.4-0.9C294.6,78,294.3,77.9,293.9,77.9z M306.7,71.7c-0.5-0.2-1.1-0.4-1.8-0.4c-1.6,0-2.9,0.4-3.8,1.2
				c-0.9,0.8-1.3,1.9-1.3,3.3V78h-1.9c-0.4,0-0.7,0.1-1,0.4c-0.3,0.3-0.4,0.6-0.4,0.9c0,0.4,0.1,0.7,0.4,0.9c0.3,0.2,0.6,0.4,1,0.4
				h1.9V92c0,0.4,0.1,0.7,0.4,1c0.3,0.3,0.6,0.4,1,0.4c0.4,0,0.8-0.1,1-0.4c0.3-0.3,0.4-0.6,0.4-1V80.6h3c0.4,0,0.7-0.1,1-0.4
				c0.2-0.2,0.4-0.5,0.4-0.9c0-0.4-0.1-0.7-0.4-0.9c-0.3-0.2-0.6-0.4-1-0.4h-3v-2.1c0-0.6,0.2-1.1,0.5-1.5c0.3-0.4,0.8-0.6,1.5-0.6
				c0.3,0,0.7,0.1,1.1,0.2c0.4,0.1,0.6,0.1,0.7,0.1c0.3,0,0.6-0.1,0.8-0.4c0.2-0.2,0.3-0.6,0.3-0.9
				C307.5,72.3,307.3,71.9,306.7,71.7z M320.5,78.4c-1.2-0.7-2.5-1-4-1c-1.5,0-2.8,0.4-4,1c-1.2,0.7-2.2,1.7-2.9,2.9
				c-0.7,1.3-1,2.7-1,4.2s0.3,3,1,4.2c0.7,1.2,1.7,2.2,2.9,2.9c1.2,0.7,2.5,1,4,1c1.5,0,2.8-0.3,4-1c1.2-0.7,2.2-1.7,2.9-2.9
				c0.7-1.2,1-2.6,1-4.2s-0.4-3-1-4.2C322.7,80.1,321.7,79.1,320.5,78.4z M320.9,88.4c-0.5,0.8-1.1,1.5-1.8,2
				c-0.8,0.5-1.6,0.7-2.6,0.7c-0.9,0-1.8-0.2-2.6-0.7c-0.8-0.5-1.4-1.1-1.8-2s-0.7-1.8-0.7-2.8c0-1.1,0.2-2,0.7-2.9
				c0.5-0.8,1.1-1.5,1.8-2c0.8-0.5,1.6-0.7,2.6-0.7c0.9,0,1.8,0.2,2.6,0.7c0.8,0.5,1.4,1.1,1.8,2c0.5,0.9,0.7,1.8,0.7,2.9
				C321.6,86.6,321.3,87.6,320.9,88.4z M336.9,77.8c-0.4-0.3-0.8-0.4-1.4-0.4c-1.1,0-2.1,0.3-3,0.9c-0.9,0.6-1.5,1.4-2,2.4v-1.5
				c0-0.4-0.1-0.7-0.4-1c-0.3-0.3-0.6-0.4-1-0.4c-0.4,0-0.7,0.1-1,0.4c-0.3,0.3-0.4,0.6-0.4,1V92c0,0.4,0.1,0.8,0.4,1
				c0.3,0.3,0.6,0.4,1,0.4c0.4,0,0.8-0.1,1-0.4c0.3-0.3,0.4-0.6,0.4-1v-7.2c0-0.9,0.2-1.8,0.6-2.5c0.4-0.8,0.8-1.3,1.4-1.8
				c0.6-0.4,1.2-0.6,1.8-0.6c0.2,0,0.6,0.1,1,0.2c0.4,0.1,0.6,0.2,0.8,0.2c0.4,0,0.7-0.1,0.9-0.4c0.2-0.2,0.4-0.6,0.4-1.1
				C337.5,78.4,337.3,78,336.9,77.8z M358.1,77.5c-1.1,0-2.2,0.3-3.2,1c-1,0.7-1.8,1.4-2.2,2.3c-0.7-2.2-2.4-3.3-4.8-3.3
				c-1,0-2,0.3-2.8,0.8c-0.9,0.5-1.6,1.2-2.1,2v-1c0-0.4-0.1-0.7-0.4-1c-0.3-0.3-0.6-0.4-1-0.4c-0.4,0-0.7,0.1-1,0.4
				c-0.3,0.3-0.4,0.6-0.4,1V92c0,0.4,0.1,0.8,0.4,1c0.3,0.3,0.6,0.4,1,0.4c0.4,0,0.8-0.1,1-0.4c0.3-0.3,0.4-0.6,0.4-1v-8
				c0-1.1,0.4-2,1.2-2.8c0.8-0.8,1.7-1.1,2.9-1.1c1.2,0,2,0.4,2.5,1.1c0.5,0.7,0.8,1.7,0.8,2.8v8c0,0.4,0.1,0.8,0.4,1
				c0.3,0.3,0.6,0.4,1,0.4s0.8-0.1,1-0.4c0.3-0.3,0.4-0.6,0.4-1v-8c0-0.7,0.2-1.4,0.5-2c0.3-0.6,0.8-1.1,1.5-1.4
				c0.6-0.3,1.3-0.5,2.1-0.5c2.2,0,3.3,1.3,3.3,3.9v8c0,0.4,0.1,0.7,0.4,1c0.3,0.3,0.6,0.4,1,0.4c0.4,0,0.8-0.1,1-0.4
				c0.3-0.3,0.4-0.6,0.4-1v-8C363.4,79.6,361.6,77.5,358.1,77.5z"/>
		</g>
	</g>
</g>
</svg>
