<?xml version="1.0" encoding="utf-8"?>
<!-- Generator: Adobe Illustrator 21.1.0, SVG Export Plug-In . SVG Version: 6.00 Build 0)  -->
<svg version="1.1" id="Layer_2" xmlns="http://www.w3.org/2000/svg" xmlns:xlink="http://www.w3.org/1999/xlink" x="0px" y="0px"
	 viewBox="0 0 136 66.2" style="enable-background:new 0 0 136 66.2;" xml:space="preserve">
<style type="text/css">
	.st0{fill-rule:evenodd;clip-rule:evenodd;fill:#1EB09F;}
	.st1{fill:#1EB09F;}
</style>
<g>
	<g>
		<path id="XMLID_222_" class="st0" d="M62.5,27.1V0H48.6v66.2h5.4c4.2,0,8.4-3.7,8.4-8.2V40.4h5.8V27.1H62.5z M62.5,34.8h-5.8v23.7
			c0,1.2-1.5,2.1-2.3,2.1V5.6h2.3v27.1h5.8V34.8z"/>
		<path id="XMLID_218_" class="st1" d="M0,0v13.3h29v13.7H0v13.3h27.4C23.8,48.6,14.1,53,2.9,53H0v13.1h2.9c26.1,0,40-16.3,40-33.4
			V0H0z M5.8,34.8v-2.2H29v0.1c0,0.7,0,1.4-0.1,2.1H5.8z M37,32.7c0,7.3-3,14.1-8.4,19.2C23,57.1,15.2,60,5.8,60.5v-2
			c7.4-0.5,14-2.7,19-6.3c6.4-4.7,9.9-11.6,9.9-19.4V13.3V7.8H29H5.8V5.5H37V32.7z"/>
		<path id="XMLID_215_" class="st0" d="M136,0h-13.5v66.2h5.3c4.2,0,8.2-3.7,8.2-8.2V0z M130.4,58.7c0,1.2-1.5,1.9-2.3,1.9V5.6h2.3
			V58.7z"/>
		<path id="XMLID_211_" class="st1" d="M73.8,0v13.3h29v13.7h-29v13.3h27.4C97.6,48.6,88,53,76.7,53h-2.9v13.1h2.9
			c26.1,0,40-16.3,40-33.4V0H73.8z M79.6,34.8v-2.2h23.1v0.1c0,0.7,0,1.4-0.1,2.1H79.6z M110.8,32.7c0,7.3-3,14.1-8.4,19.2
			C96.8,57.1,89,60,79.6,60.5v-2c7.4-0.5,14-2.7,19-6.3c6.4-4.7,9.9-11.6,9.9-19.4V13.3V7.8h-5.8H79.6V5.5h31.2V32.7z"/>
	</g>
</g>
</svg>
