<?xml version="1.0" encoding="utf-8"?>
<!-- Generator: Adobe Illustrator 21.1.0, SVG Export Plug-In . SVG Version: 6.00 Build 0)  -->
<svg version="1.1" id="artwork" xmlns="http://www.w3.org/2000/svg" xmlns:xlink="http://www.w3.org/1999/xlink" x="0px" y="0px"
	 viewBox="0 0 116 28" style="enable-background:new 0 0 116 28;" xml:space="preserve">
<style type="text/css">
	.st0{fill:#FFFFFF;}
	.st1{fill:url(#SVGID_1_);}
	.st2{fill:url(#SVGID_2_);}
	.st3{fill:url(#SVGID_3_);}
	.st4{fill:url(#SVGID_4_);}
	.st5{opacity:0.2;enable-background:new    ;}
	.st6{opacity:0.12;enable-background:new    ;}
	.st7{opacity:0.25;fill:#FFFFFF;enable-background:new    ;}
</style>
<g>
	<path class="st0" d="M37.6,3.2h-3.2v1.1h2.2c-0.1,0.4-0.2,0.7-0.4,0.9c-0.4,0.4-0.9,0.6-1.6,0.6c-0.6,0-1.1-0.2-1.5-0.6
		c-0.4-0.4-0.6-0.9-0.6-1.6s0.2-1.2,0.6-1.6c0.4-0.4,0.9-0.6,1.5-0.6c0.6,0,1.1,0.2,1.5,0.6l0.1,0.1L37,1.4l-0.1-0.1
		c-0.3-0.3-0.6-0.5-1-0.7c-0.4-0.2-0.8-0.3-1.3-0.3c-0.9,0-1.7,0.3-2.3,1c-0.6,0.6-1,1.4-1,2.4s0.3,1.7,1,2.4c0.6,0.6,1.4,1,2.3,1
		c1,0,1.7-0.3,2.3-0.9c0.5-0.5,0.8-1.2,0.8-2.1c0-0.2,0-0.3,0-0.5L37.6,3.2z"/>
	<polygon class="st0" points="38.5,6.8 42.3,6.8 42.3,5.7 39.6,5.7 39.6,4.2 42,4.2 42,3.1 39.6,3.1 39.6,1.5 42.3,1.5 42.3,0.4 
		38.5,0.4 	"/>
	<polygon class="st0" points="42.8,1.5 44.4,1.5 44.4,6.8 45.6,6.8 45.6,1.5 47.2,1.5 47.2,0.4 42.8,0.4 	"/>
	<rect x="49.9" y="0.4" class="st0" width="1.1" height="6.3"/>
	<polygon class="st0" points="51.6,1.5 53.3,1.5 53.3,6.8 54.4,6.8 54.4,1.5 56.1,1.5 56.1,0.4 51.6,0.4 	"/>
	<path class="st0" d="M61.5,0.3c-0.9,0-1.7,0.3-2.3,1c-0.6,0.6-0.9,1.4-0.9,2.3s0.3,1.7,0.9,2.3c0.6,0.6,1.4,1,2.3,1
		c0.9,0,1.7-0.3,2.3-1h0c0.6-0.6,0.9-1.4,0.9-2.3c0-0.9-0.3-1.7-0.9-2.3C63.2,0.6,62.4,0.3,61.5,0.3z M61.5,5.8
		c-0.6,0-1.1-0.2-1.5-0.6c-0.4-0.4-0.6-0.9-0.6-1.6S59.6,2.4,60,2c0.4-0.4,0.9-0.6,1.5-0.6c0.6,0,1.1,0.2,1.5,0.6
		c0.4,0.4,0.6,0.9,0.6,1.6S63.4,4.8,63,5.2C62.6,5.6,62.1,5.8,61.5,5.8z"/>
	<polygon class="st0" points="69.4,0.4 69.4,4.1 69.4,4.7 66.7,0.4 65.5,0.4 65.5,6.8 66.6,6.8 66.6,2.9 66.6,2.3 69.4,6.7 
		69.4,6.8 70.5,6.8 70.5,0.4 	"/>
</g>
<path class="st0" d="M58.2,15.4c-2.4,0-4.3,1.8-4.3,4.3c0,2.4,1.9,4.3,4.3,4.3c2.4,0,4.3-1.8,4.3-4.3C62.5,17.2,60.6,15.4,58.2,15.4
	z M58.2,22.2c-1.3,0-2.4-1.1-2.4-2.6c0-1.5,1.1-2.6,2.4-2.6s2.4,1,2.4,2.6C60.6,21.1,59.5,22.2,58.2,22.2z M48.9,15.4
	c-2.4,0-4.3,1.8-4.3,4.3c0,2.4,1.9,4.3,4.3,4.3c2.4,0,4.3-1.8,4.3-4.3C53.2,17.2,51.3,15.4,48.9,15.4z M48.9,22.2
	c-1.3,0-2.4-1.1-2.4-2.6c0-1.5,1.1-2.6,2.4-2.6c1.3,0,2.4,1,2.4,2.6C51.3,21.1,50.2,22.2,48.9,22.2z M37.8,16.7v1.8h4.3
	c-0.1,1-0.5,1.8-1,2.3c-0.6,0.6-1.6,1.3-3.3,1.3c-2.7,0-4.7-2.1-4.7-4.8s2.1-4.8,4.7-4.8c1.4,0,2.5,0.6,3.3,1.3l1.3-1.3
	c-1.1-1-2.5-1.8-4.5-1.8c-3.6,0-6.7,3-6.7,6.6c0,3.6,3.1,6.6,6.7,6.6c2,0,3.4-0.6,4.6-1.9c1.2-1.2,1.6-2.9,1.6-4.2
	c0-0.4,0-0.8-0.1-1.1H37.8z M83.2,18.1c-0.4-1-1.4-2.7-3.6-2.7c-2.2,0-4,1.7-4,4.3c0,2.4,1.8,4.3,4.2,4.3c1.9,0,3.1-1.2,3.5-1.9
	l-1.4-1c-0.5,0.7-1.1,1.2-2.1,1.2c-1,0-1.6-0.4-2.1-1.3l5.7-2.4L83.2,18.1z M77.4,19.5c0-1.6,1.3-2.5,2.2-2.5c0.7,0,1.4,0.4,1.6,0.9
	L77.4,19.5z M72.7,23.6h1.9V11.1h-1.9V23.6z M69.7,16.3L69.7,16.3c-0.5-0.5-1.3-1-2.3-1c-2.1,0-4.1,1.9-4.1,4.3
	c0,2.4,1.9,4.2,4.1,4.2c1,0,1.8-0.5,2.2-1h0.1v0.6c0,1.6-0.9,2.5-2.3,2.5c-1.1,0-1.9-0.8-2.1-1.5l-1.6,0.7c0.5,1.1,1.7,2.5,3.8,2.5
	c2.2,0,4-1.3,4-4.4v-7.6h-1.8V16.3z M67.5,22.2c-1.3,0-2.4-1.1-2.4-2.6c0-1.5,1.1-2.6,2.4-2.6c1.3,0,2.3,1.1,2.3,2.6
	C69.8,21.1,68.8,22.2,67.5,22.2z M91.9,11.1h-4.5v12.5h1.9v-4.7h2.6c2.1,0,4.1-1.5,4.1-3.9S94,11.1,91.9,11.1z M92,17.1h-2.7v-4.3
	H92c1.4,0,2.2,1.2,2.2,2.1C94.1,16,93.4,17.1,92,17.1z M103.5,15.3c-1.4,0-2.8,0.6-3.3,1.9l1.7,0.7c0.4-0.7,1-0.9,1.7-0.9
	c1,0,1.9,0.6,2,1.6v0.1c-0.3-0.2-1.1-0.5-1.9-0.5c-1.8,0-3.6,1-3.6,2.8c0,1.7,1.5,2.8,3.1,2.8c1.3,0,1.9-0.6,2.4-1.2h0.1v1h1.8v-4.8
	C107.3,16.6,105.6,15.3,103.5,15.3z M103.3,22.2c-0.6,0-1.5-0.3-1.5-1.1c0-1,1.1-1.3,2-1.3c0.8,0,1.2,0.2,1.7,0.4
	C105.3,21.4,104.3,22.2,103.3,22.2z M113.8,15.6l-2.1,5.4h-0.1l-2.2-5.4h-2l3.3,7.6l-1.9,4.2h1.9l5.1-11.8H113.8z M97,23.6h1.9V11.1
	H97V23.6z"/>
<g>
	
		<linearGradient id="SVGID_1_" gradientUnits="userSpaceOnUse" x1="11.9044" y1="165.6738" x2="-4.878" y2="148.8914" gradientTransform="matrix(1 0 0 -1 0 168)">
		<stop  offset="0" style="stop-color:#00A0FF"/>
		<stop  offset="6.574450e-03" style="stop-color:#00A1FF"/>
		<stop  offset="0.2601" style="stop-color:#00BEFF"/>
		<stop  offset="0.5122" style="stop-color:#00D2FF"/>
		<stop  offset="0.7604" style="stop-color:#00DFFF"/>
		<stop  offset="1" style="stop-color:#00E3FF"/>
	</linearGradient>
	<path class="st1" d="M0.5,1.2C0.2,1.5,0.1,1.9,0.1,2.6v22.1c0,0.6,0.2,1.1,0.5,1.4l0.1,0.1L13,13.8v-0.1v-0.1L0.5,1.2L0.5,1.2z"/>
	
		<linearGradient id="SVGID_2_" gradientUnits="userSpaceOnUse" x1="23.939" y1="154.3821" x2="-0.2579" y2="154.3821" gradientTransform="matrix(1 0 0 -1 0 168)">
		<stop  offset="0" style="stop-color:#FFE000"/>
		<stop  offset="0.4087" style="stop-color:#FFBD00"/>
		<stop  offset="0.7754" style="stop-color:#FFA500"/>
		<stop  offset="1" style="stop-color:#FF9C00"/>
	</linearGradient>
	<path class="st2" d="M17.1,17.9L13,13.8v-0.1v-0.1l4.1-4.1l0.1,0.1l4.9,2.8c1.4,0.8,1.4,2.1,0,2.9L17.1,17.9L17.1,17.9z"/>
	
		<linearGradient id="SVGID_3_" gradientUnits="userSpaceOnUse" x1="14.9316" y1="152.0874" x2="-7.8267" y2="129.3291" gradientTransform="matrix(1 0 0 -1 0 168)">
		<stop  offset="0" style="stop-color:#FF3A44"/>
		<stop  offset="1" style="stop-color:#C31162"/>
	</linearGradient>
	<path class="st3" d="M17.2,17.8L13,13.6L0.5,26.1c0.5,0.5,1.2,0.5,2.1,0.1L17.2,17.8"/>
	
		<linearGradient id="SVGID_4_" gradientUnits="userSpaceOnUse" x1="-2.598" y1="174.2073" x2="7.5645" y2="164.0448" gradientTransform="matrix(1 0 0 -1 0 168)">
		<stop  offset="0" style="stop-color:#32A071"/>
		<stop  offset="6.850000e-02" style="stop-color:#2DA771"/>
		<stop  offset="0.4762" style="stop-color:#15CF74"/>
		<stop  offset="0.8009" style="stop-color:#06E775"/>
		<stop  offset="1" style="stop-color:#00F076"/>
	</linearGradient>
	<path class="st4" d="M17.2,9.4L2.6,1.1C1.8,0.6,1,0.7,0.5,1.2L13,13.6L17.2,9.4z"/>
	<g>
		<path class="st5" d="M17.1,17.7L2.6,26c-0.8,0.5-1.5,0.4-2,0l0,0l-0.1,0.1l0,0l0.1,0.1l0,0c0.5,0.4,1.2,0.5,2,0L17.1,17.7
			L17.1,17.7z"/>
		<path class="st6" d="M0.5,25.9c-0.3-0.3-0.5-0.8-0.5-1.4v0.1c0,0.6,0.2,1.1,0.5,1.4V25.9L0.5,25.9z"/>
	</g>
	<path class="st6" d="M22.1,14.9l-5,2.8l0.1,0.1l4.9-2.8c0.7-0.4,1-0.9,1-1.4l0,0C23.1,14.1,22.8,14.6,22.1,14.9z"/>
	<path class="st7" d="M2.6,1.2l19.5,11.1c0.6,0.4,1,0.8,1,1.3l0,0c0-0.5-0.3-1-1-1.4L2.6,1.1C1.2,0.3,0.1,1,0.1,2.6v0.1
		C0.1,1.1,1.2,0.4,2.6,1.2z"/>
</g>
</svg>
