<?xml version="1.0" encoding="utf-8"?>
<!-- Generator: Adobe Illustrator 21.1.0, SVG Export Plug-In . SVG Version: 6.00 Build 0)  -->
<svg version="1.1" id="레이어_1" xmlns="http://www.w3.org/2000/svg" xmlns:xlink="http://www.w3.org/1999/xlink" x="0px"
	 y="0px" viewBox="0 0 185 42" style="enable-background:new 0 0 185 42;" xml:space="preserve">
<style type="text/css">
	.st0{fill:none;enable-background:new    ;}
	.st1{fill-rule:evenodd;clip-rule:evenodd;fill:#FFFFFF;}
</style>
<path class="st0" d="z"/>
<g id="KAKEY">
	<g>
		<path class="st1" d="M0.4,42h9.2V0H0.4V42z M32.9,0H22.3L9.8,20.6v0.2L22.7,42h11.5L19.8,20.4L32.9,0z M48,0L35.3,42h9.2l2.7-9.7
			h14.1l2.6,9.7h9.6L60.8,0H48z M49.3,24.8l1.7-6.1c1.5-5.3,2.4-8.8,3.1-12.4h0.2c0.7,3.7,1.6,6.8,3.2,12.6l1.6,5.9H49.3z M79.2,42
			h9.2V0h-9.2V42z M111.7,0h-10.6L88.7,20.6v0.2L101.6,42H113L98.6,20.4L111.7,0z M127.2,24.4h13.6v-7.6h-13.6V7.5H143V0h-24.9V42
			h25.6v-7.6h-16.5V24.4z M174.9,0l-8.8,19.4h-0.2L157.3,0h-10.2l14.2,28.6V42h9.2V28.5L184.6,0H174.9z"/>
	</g>
</g>
</svg>
