<?xml version="1.0" encoding="utf-8"?>
<!-- Generator: Adobe Illustrator 21.1.0, SVG Export Plug-In . SVG Version: 6.00 Build 0)  -->
<svg version="1.1" id="Layer_1" xmlns="http://www.w3.org/2000/svg" xmlns:xlink="http://www.w3.org/1999/xlink" x="0px" y="0px"
	 viewBox="0 0 96.7 28" style="enable-background:new 0 0 96.7 28;" xml:space="preserve">
<style type="text/css">
	.st0{fill:#FFFFFF;}
</style>
<g>
	<g>
		<g>
			<path class="st0" d="M15.3,13.1c0-2.8,2.3-4.2,2.4-4.3c-1.3-1.9-3.4-2.2-4.1-2.2c-1.7-0.2-3.4,1-4.3,1c-0.9,0-2.3-1-3.7-1
				C3.7,6.6,1.9,7.7,1,9.4c-2,3.5-0.5,8.6,1.4,11.4c1,1.4,2.1,2.9,3.6,2.9c1.4-0.1,2-0.9,3.7-0.9c1.7,0,2.2,0.9,3.7,0.9
				c1.5,0,2.5-1.4,3.4-2.8c1.1-1.6,1.6-3.1,1.6-3.2C18.3,17.6,15.4,16.5,15.3,13.1z"/>
			<path class="st0" d="M12.5,4.7c0.8-1,1.3-2.3,1.2-3.6c-1.1,0-2.5,0.8-3.3,1.7C9.6,3.6,9,5,9.1,6.3C10.4,6.4,11.7,5.7,12.5,4.7z"
				/>
		</g>
	</g>
	<g>
		<path class="st0" d="M36.1,23.5h-2L33,20h-3.8l-1,3.5h-2L30,11.7h2.3L36.1,23.5z M32.7,18.5l-1-3.1c-0.1-0.3-0.3-1.1-0.6-2.2h0
			c-0.1,0.5-0.3,1.2-0.6,2.2l-1,3.1H32.7z"/>
		<path class="st0" d="M45.9,19.1c0,1.4-0.4,2.6-1.2,3.4c-0.7,0.7-1.6,1.1-2.6,1.1c-1.1,0-1.9-0.4-2.4-1.2h0v4.5h-1.9v-9.1
			c0-0.9,0-1.8-0.1-2.8h1.7l0.1,1.3h0c0.6-1,1.6-1.5,2.9-1.5c1,0,1.8,0.4,2.5,1.2C45.5,16.8,45.9,17.8,45.9,19.1z M43.9,19.2
			c0-0.8-0.2-1.5-0.6-2c-0.4-0.6-1-0.8-1.6-0.8c-0.5,0-0.9,0.2-1.3,0.5c-0.4,0.3-0.6,0.7-0.7,1.2c-0.1,0.2-0.1,0.4-0.1,0.6V20
			c0,0.6,0.2,1.1,0.6,1.6c0.4,0.4,0.9,0.6,1.5,0.6c0.7,0,1.3-0.3,1.7-0.8C43.7,20.8,43.9,20.1,43.9,19.2z"/>
		<path class="st0" d="M55.6,19.1c0,1.4-0.4,2.6-1.2,3.4c-0.7,0.7-1.6,1.1-2.6,1.1c-1.1,0-1.9-0.4-2.4-1.2h0v4.5h-1.9v-9.1
			c0-0.9,0-1.8-0.1-2.8h1.7l0.1,1.3h0c0.6-1,1.6-1.5,2.9-1.5c1,0,1.8,0.4,2.5,1.2C55.3,16.8,55.6,17.8,55.6,19.1z M53.7,19.2
			c0-0.8-0.2-1.5-0.6-2c-0.4-0.6-1-0.8-1.6-0.8c-0.5,0-0.9,0.2-1.3,0.5c-0.4,0.3-0.6,0.7-0.7,1.2c-0.1,0.2-0.1,0.4-0.1,0.6V20
			c0,0.6,0.2,1.1,0.6,1.6c0.4,0.4,0.9,0.6,1.5,0.6c0.7,0,1.3-0.3,1.7-0.8C53.5,20.8,53.7,20.1,53.7,19.2z"/>
		<path class="st0" d="M66.5,20.2c0,1-0.3,1.8-1,2.4c-0.8,0.7-1.8,1-3.2,1c-1.3,0-2.3-0.2-3-0.7l0.4-1.6c0.8,0.5,1.7,0.8,2.7,0.8
			c0.7,0,1.3-0.2,1.7-0.5c0.4-0.3,0.6-0.7,0.6-1.3c0-0.5-0.2-0.9-0.5-1.2c-0.3-0.3-0.9-0.6-1.6-0.9c-2.1-0.8-3.1-1.9-3.1-3.4
			c0-1,0.4-1.8,1.1-2.4c0.7-0.6,1.7-0.9,2.9-0.9c1.1,0,2,0.2,2.7,0.6l-0.5,1.5c-0.7-0.4-1.4-0.5-2.3-0.5c-0.7,0-1.2,0.2-1.6,0.5
			c-0.3,0.3-0.5,0.6-0.5,1.1c0,0.5,0.2,0.8,0.5,1.2c0.3,0.3,0.9,0.6,1.7,0.9c1,0.4,1.8,0.9,2.2,1.4C66.3,18.7,66.5,19.3,66.5,20.2z"
			/>
		<path class="st0" d="M72.8,16.4h-2.1v4.1c0,1,0.4,1.6,1.1,1.6c0.3,0,0.6,0,0.8-0.1l0.1,1.4c-0.4,0.1-0.9,0.2-1.5,0.2
			c-0.7,0-1.3-0.2-1.7-0.7c-0.4-0.5-0.6-1.2-0.6-2.3v-4.3h-1.2V15h1.2v-1.6l1.9-0.6V15h2.1V16.4z"/>
		<path class="st0" d="M82.1,19.1c0,1.3-0.4,2.4-1.1,3.2c-0.8,0.9-1.8,1.3-3.1,1.3c-1.2,0-2.2-0.4-3-1.2c-0.7-0.8-1.1-1.9-1.1-3.1
			c0-1.3,0.4-2.4,1.1-3.2c0.8-0.8,1.8-1.3,3.1-1.3c1.2,0,2.2,0.4,3,1.2C81.8,16.8,82.1,17.9,82.1,19.1z M80.2,19.2
			c0-0.8-0.2-1.5-0.5-2c-0.4-0.7-1-1-1.7-1c-0.8,0-1.3,0.3-1.7,1c-0.3,0.6-0.5,1.2-0.5,2c0,0.8,0.2,1.5,0.5,2c0.4,0.7,1,1,1.7,1
			c0.7,0,1.3-0.3,1.7-1C80,20.7,80.2,20,80.2,19.2z"/>
		<path class="st0" d="M88.3,16.6c-0.2,0-0.4-0.1-0.6-0.1c-0.7,0-1.2,0.3-1.5,0.8c-0.3,0.4-0.5,1-0.5,1.7v4.5h-1.9l0-5.8
			c0-1,0-1.9-0.1-2.7h1.6l0.1,1.6h0.1c0.2-0.6,0.5-1,0.9-1.3c0.4-0.3,0.9-0.5,1.4-0.5c0.2,0,0.3,0,0.5,0V16.6z"/>
		<path class="st0" d="M96.7,18.8c0,0.3,0,0.6-0.1,0.9H91c0,0.8,0.3,1.5,0.8,1.9c0.5,0.4,1.1,0.6,1.8,0.6c0.8,0,1.6-0.1,2.3-0.4
			l0.3,1.3c-0.8,0.3-1.8,0.5-2.8,0.5c-1.3,0-2.3-0.4-3.1-1.2c-0.7-0.8-1.1-1.8-1.1-3.1c0-1.3,0.3-2.3,1-3.2c0.7-0.9,1.7-1.4,3-1.4
			c1.2,0,2.1,0.5,2.8,1.4C96.4,16.9,96.7,17.7,96.7,18.8z M94.9,18.3c0-0.6-0.1-1-0.4-1.4c-0.3-0.5-0.8-0.8-1.5-0.8
			c-0.6,0-1.1,0.3-1.5,0.8c-0.3,0.4-0.5,0.9-0.6,1.5H94.9z"/>
	</g>
	<g>
		<g>
			<path class="st0" d="M32.1,4.4c0,1-0.3,1.8-0.9,2.4c-0.6,0.5-1.4,0.7-2.5,0.7c-0.5,0-1,0-1.4-0.1V1.8c0.5-0.1,1-0.1,1.6-0.1
				c1,0,1.8,0.2,2.3,0.7C31.8,2.8,32.1,3.5,32.1,4.4z M31.1,4.5c0-0.7-0.2-1.2-0.5-1.6c-0.4-0.4-0.9-0.5-1.6-0.5
				c-0.3,0-0.5,0-0.7,0.1v4.3c0.1,0,0.3,0,0.6,0c0.7,0,1.3-0.2,1.6-0.6C30.9,5.8,31.1,5.2,31.1,4.5z"/>
			<path class="st0" d="M37.2,5.4c0,0.6-0.2,1.2-0.5,1.6c-0.4,0.4-0.9,0.6-1.5,0.6c-0.6,0-1.1-0.2-1.5-0.6c-0.4-0.4-0.5-0.9-0.5-1.5
				c0-0.6,0.2-1.2,0.6-1.6c0.4-0.4,0.9-0.6,1.5-0.6c0.6,0,1.1,0.2,1.5,0.6C37.1,4.2,37.2,4.7,37.2,5.4z M36.3,5.4
				c0-0.4-0.1-0.7-0.2-1c-0.2-0.3-0.5-0.5-0.8-0.5c-0.4,0-0.7,0.2-0.8,0.5c-0.2,0.3-0.2,0.6-0.2,1c0,0.4,0.1,0.7,0.2,1
				c0.2,0.3,0.5,0.5,0.8,0.5c0.4,0,0.6-0.2,0.8-0.5C36.2,6.1,36.3,5.8,36.3,5.4z"/>
			<path class="st0" d="M44.2,3.3l-1.3,4.2H42l-0.5-1.8c-0.1-0.5-0.2-0.9-0.3-1.3h0c-0.1,0.5-0.2,0.9-0.3,1.3l-0.6,1.8h-0.9
				l-1.2-4.2h1l0.5,2c0.1,0.5,0.2,0.9,0.3,1.3h0c0.1-0.3,0.2-0.8,0.3-1.3l0.6-2h0.8l0.6,1.9c0.1,0.5,0.2,0.9,0.3,1.4h0
				c0.1-0.4,0.2-0.9,0.3-1.4l0.5-1.9H44.2z"/>
			<path class="st0" d="M49,7.5h-0.9V5.1c0-0.7-0.3-1.1-0.8-1.1c-0.3,0-0.5,0.1-0.7,0.3c-0.2,0.2-0.3,0.4-0.3,0.7v2.5h-0.9v-3
				c0-0.4,0-0.8,0-1.2h0.8l0,0.7h0c0.1-0.2,0.3-0.4,0.5-0.5c0.3-0.2,0.5-0.2,0.8-0.2c0.4,0,0.7,0.1,1,0.4C48.8,3.9,49,4.4,49,5V7.5z
				"/>
			<path class="st0" d="M51.5,7.5h-0.9V1.4h0.9V7.5z"/>
			<path class="st0" d="M57,5.4c0,0.6-0.2,1.2-0.5,1.6c-0.4,0.4-0.9,0.6-1.5,0.6c-0.6,0-1.1-0.2-1.5-0.6c-0.4-0.4-0.5-0.9-0.5-1.5
				c0-0.6,0.2-1.2,0.6-1.6c0.4-0.4,0.9-0.6,1.5-0.6c0.6,0,1.1,0.2,1.5,0.6C56.8,4.2,57,4.7,57,5.4z M56,5.4c0-0.4-0.1-0.7-0.2-1
				c-0.2-0.3-0.5-0.5-0.8-0.5c-0.4,0-0.7,0.2-0.8,0.5c-0.2,0.3-0.2,0.6-0.2,1c0,0.4,0.1,0.7,0.2,1c0.2,0.3,0.5,0.5,0.8,0.5
				c0.4,0,0.6-0.2,0.8-0.5C56,6.1,56,5.8,56,5.4z"/>
			<path class="st0" d="M61.5,7.5h-0.8L60.6,7h0c-0.3,0.4-0.7,0.6-1.2,0.6c-0.4,0-0.7-0.1-1-0.4c-0.2-0.2-0.3-0.5-0.3-0.8
				c0-0.5,0.2-0.9,0.6-1.2c0.4-0.3,1-0.4,1.8-0.4V4.7c0-0.5-0.3-0.8-0.9-0.8c-0.4,0-0.8,0.1-1.1,0.3l-0.2-0.6
				c0.4-0.2,0.9-0.4,1.4-0.4c1.1,0,1.6,0.6,1.6,1.7v1.5C61.4,6.9,61.4,7.2,61.5,7.5z M60.5,6V5.4c-1,0-1.5,0.3-1.5,0.8
				c0,0.2,0.1,0.4,0.2,0.5c0.1,0.1,0.3,0.2,0.5,0.2c0.2,0,0.4-0.1,0.6-0.2c0.2-0.1,0.3-0.3,0.3-0.5C60.5,6.2,60.5,6.1,60.5,6z"/>
			<path class="st0" d="M66.7,7.5h-0.8l0-0.7h0c-0.3,0.5-0.7,0.8-1.3,0.8c-0.5,0-0.9-0.2-1.3-0.6c-0.3-0.4-0.5-0.9-0.5-1.5
				c0-0.7,0.2-1.2,0.5-1.6c0.3-0.4,0.8-0.6,1.3-0.6c0.6,0,1,0.2,1.2,0.6h0V1.4h0.9v5C66.7,6.8,66.7,7.1,66.7,7.5z M65.8,5.7V5
				c0-0.1,0-0.2,0-0.3c-0.1-0.2-0.2-0.4-0.3-0.6C65.3,4,65,3.9,64.8,3.9c-0.3,0-0.6,0.1-0.8,0.4c-0.2,0.3-0.3,0.6-0.3,1.1
				c0,0.4,0.1,0.7,0.3,1c0.2,0.3,0.5,0.4,0.8,0.4c0.3,0,0.5-0.1,0.7-0.3C65.7,6.3,65.8,6,65.8,5.7z"/>
			<path class="st0" d="M74.7,5.4c0,0.6-0.2,1.2-0.5,1.6c-0.4,0.4-0.9,0.6-1.5,0.6c-0.6,0-1.1-0.2-1.5-0.6c-0.4-0.4-0.5-0.9-0.5-1.5
				c0-0.6,0.2-1.2,0.6-1.6c0.4-0.4,0.9-0.6,1.5-0.6c0.6,0,1.1,0.2,1.5,0.6C74.5,4.2,74.7,4.7,74.7,5.4z M73.7,5.4
				c0-0.4-0.1-0.7-0.2-1c-0.2-0.3-0.5-0.5-0.8-0.5c-0.4,0-0.7,0.2-0.8,0.5c-0.2,0.3-0.2,0.6-0.2,1c0,0.4,0.1,0.7,0.2,1
				c0.2,0.3,0.5,0.5,0.8,0.5c0.4,0,0.6-0.2,0.8-0.5C73.6,6.1,73.7,5.8,73.7,5.4z"/>
			<path class="st0" d="M79.7,7.5h-0.9V5.1c0-0.7-0.3-1.1-0.8-1.1c-0.3,0-0.5,0.1-0.7,0.3C77,4.5,77,4.7,77,5v2.5H76v-3
				c0-0.4,0-0.8,0-1.2h0.8l0,0.7h0c0.1-0.2,0.3-0.4,0.5-0.5c0.3-0.2,0.5-0.2,0.8-0.2c0.4,0,0.7,0.1,1,0.4c0.3,0.3,0.5,0.8,0.5,1.4
				V7.5z"/>
			<path class="st0" d="M85.9,4h-1v2c0,0.5,0.2,0.8,0.5,0.8c0.2,0,0.3,0,0.4,0l0,0.7c-0.2,0.1-0.4,0.1-0.7,0.1
				c-0.4,0-0.7-0.1-0.9-0.3C84.1,7,84,6.6,84,6.1V4h-0.6V3.3H84V2.5l0.9-0.3v1h1V4z"/>
			<path class="st0" d="M90.8,7.5h-0.9V5.1C89.9,4.4,89.6,4,89,4c-0.4,0-0.7,0.2-0.9,0.7c0,0.1,0,0.2,0,0.3v2.5h-0.9V1.4h0.9v2.5h0
				c0.3-0.5,0.7-0.7,1.3-0.7c0.4,0,0.7,0.1,1,0.4c0.3,0.3,0.5,0.8,0.5,1.4V7.5z"/>
			<path class="st0" d="M95.9,5.2c0,0.2,0,0.3,0,0.4H93c0,0.4,0.1,0.7,0.4,0.9c0.2,0.2,0.5,0.3,0.9,0.3c0.4,0,0.8-0.1,1.1-0.2
				l0.1,0.6c-0.4,0.2-0.9,0.3-1.4,0.3c-0.6,0-1.2-0.2-1.5-0.6c-0.4-0.4-0.6-0.9-0.6-1.5c0-0.6,0.2-1.2,0.5-1.6
				c0.4-0.4,0.8-0.7,1.5-0.7c0.6,0,1.1,0.2,1.4,0.7C95.7,4.2,95.9,4.7,95.9,5.2z M95,5c0-0.3-0.1-0.5-0.2-0.7
				c-0.2-0.3-0.4-0.4-0.7-0.4c-0.3,0-0.5,0.1-0.7,0.4C93.2,4.4,93.1,4.7,93,5H95z"/>
		</g>
	</g>
</g>
</svg>
