<?xml version="1.0" encoding="utf-8"?>
<!-- Generator: Adobe Illustrator 21.1.0, SVG Export Plug-In . SVG Version: 6.00 Build 0)  -->
<svg version="1.1" id="Layer_1" xmlns="http://www.w3.org/2000/svg" xmlns:xlink="http://www.w3.org/1999/xlink" x="0px" y="0px"
	 viewBox="0 0 481 210" style="enable-background:new 0 0 481 210;" xml:space="preserve">
<style type="text/css">
	.st0{fill:#FFFFFF;}
	.st1{opacity:0.3;fill:#FFFFFF;enable-background:new    ;}
</style>
<g>
	<path class="st0" d="M71.7,43.4C32.1,43.4,0,59.5,0,79.4s32.1,36,71.7,36s71.7-16.1,71.7-36C143.5,59.5,111.4,43.4,71.7,43.4z
		 M71.7,110.8c-34.9,0-63.3-14.1-63.3-31.5c0-17.3,28.4-31.5,63.3-31.5S135,61.9,135,79.3C135.1,96.7,106.7,110.8,71.7,110.8z"/>
	<path class="st0" d="M64.8,63.2H66c0.4,0,0.7,0.3,0.7,0.7v32.9c0,0.4,0.3,0.8,0.8,0.8H76c0.4,0,0.8-0.3,0.8-0.8v-35
		c0-0.4-0.3-0.8-0.8-0.8H64.8c-0.1,0-0.1,0.1-0.1,0.2V63C64.7,63.1,64.7,63.2,64.8,63.2z"/>
	<path class="st0" d="M84.2,97.6h8.5c0.4,0,0.8-0.3,1-0.8l7.2-22.7c0,0,0.1-0.3,0.4-0.3s0.3,0.3,0.3,0.3l7.3,22.7
		c0.2,0.4,0.6,0.8,1,0.8h8.5c0.3,0,0.5-0.1,0.6-0.3c0.2-0.2,0.2-0.5,0.1-0.7l-11.8-35.2c-0.2-0.5-0.6-0.5-1-0.5H92.7
		c-0.1,0-0.2,0.1-0.2,0.2V63c0,0.1,0.1,0.2,0.2,0.2h1c0.4,0,0.7,0.3,0.7,0.6c0,0.1,0,0.3-0.1,0.4L83.5,96.7c-0.1,0.2,0,0.5,0.1,0.7
		C83.8,97.5,84,97.6,84.2,97.6z"/>
	<path class="st0" d="M26.6,63.2c0.4,0,0.7,0.3,0.7,0.7v32.9c0,0.4,0.3,0.8,0.8,0.8h8.4c0.4,0,0.8-0.3,0.8-0.8V83
		c0-0.3,0.1-0.5,0.4-0.5c0.3,0,0.4,0.2,0.5,0.4l0,0l9.9,13.8c0.3,0.5,0.9,0.8,1.3,0.8h9.9c0.2,0,0.5-0.2,0.6-0.4
		c0.1-0.2,0.1-0.5-0.1-0.8c0,0-12.5-17.6-12.6-17.8c0-0.1-0.1-0.1-0.1-0.1S47,78.3,47,78.2v-0.1c0-0.1,0.1-0.3,0.2-0.5l0,0L57.7,62
		c0.1-0.2,0.1-0.5,0-0.7s-0.4-0.4-0.6-0.4h-9.4c-0.4,0-1,0.4-1.4,0.8l-8.2,11.6c-0.3,0.4-0.5,0.4-0.6,0.4l0,0
		c-0.2,0-0.4-0.2-0.4-0.4V61.8c0-0.4-0.3-0.8-0.8-0.8h-11c-0.1,0-0.2,0.1-0.2,0.2V63c0,0.1,0.1,0.2,0.2,0.2H26.6z"/>
</g>
<path id="Worked_in_association_with_KIA_MOTORS" class="st0" d="M25.5,146c-0.4,0-0.7,0.2-0.8,0.5l-5.4,16l-4.7-11.7
	c-0.1-0.2-0.2-0.3-0.3-0.4c-0.1-0.1-0.3-0.1-0.5-0.1c-0.4,0-0.7,0.2-0.8,0.5l-4.7,11.7l-5.5-16c-0.1-0.2-0.2-0.3-0.3-0.4
	C2.3,146,2.2,146,2,146s-0.5,0.1-0.6,0.2c-0.2,0.1-0.3,0.4-0.3,0.6c0,0.1,0,0.2,0.1,0.3L7.4,165c0,0.2,0.1,0.3,0.3,0.4
	c0.4,0.3,1,0.1,1.2-0.3c0,0,0-0.1,0.1-0.1l4.9-12l4.8,12c0.1,0.3,0.5,0.6,0.8,0.5c0.2,0,0.3,0,0.5-0.1c0.1-0.1,0.2-0.2,0.3-0.4
	l6.2-17.9l0.1-0.4c0-0.2-0.1-0.5-0.2-0.6C25.9,146.1,25.7,146,25.5,146L25.5,146L25.5,146z M42.2,158.5c0-1.3-0.3-2.6-0.9-3.8
	c-0.6-1.1-1.5-2-2.6-2.7c-2.2-1.3-5-1.3-7.2,0c-1.1,0.6-2,1.6-2.5,2.7c-1.2,2.4-1.2,5.2,0,7.6c0.6,1.1,1.5,2,2.5,2.7
	c2.2,1.3,5,1.3,7.2,0c1.1-0.6,2-1.6,2.6-2.7C41.9,161.2,42.2,159.9,42.2,158.5L42.2,158.5z M40.5,158.5c0,1.1-0.2,2.1-0.7,3
	c-0.4,0.9-1.1,1.6-1.9,2.1c-0.8,0.5-1.8,0.8-2.8,0.8s-1.9-0.3-2.8-0.8c-0.8-0.5-1.5-1.2-1.9-2.1c-1-1.9-1-4.1,0-6
	c0.4-0.9,1.1-1.6,1.9-2.1c1.7-1,3.8-1,5.5,0c0.8,0.5,1.5,1.2,1.9,2.1C40.3,156.4,40.6,157.5,40.5,158.5L40.5,158.5z M52.4,151.1
	c-1.1,0-2.2,0.4-3.1,1.1c-0.9,0.7-1.5,1.6-1.9,2.6v-2.5c0-0.5-0.4-0.8-0.9-0.8c-0.2,0-0.4,0.1-0.6,0.2c-0.2,0.2-0.2,0.4-0.2,0.6
	v12.5c0,0.5,0.4,0.8,0.9,0.8c0.2,0,0.4-0.1,0.6-0.2c0.2-0.2,0.2-0.4,0.2-0.6v-6.9c0-0.9,0.2-1.8,0.7-2.5c0.4-0.8,1-1.5,1.7-2.1
	c0.6-0.5,1.3-0.8,2.1-0.8c0.3,0,0.5,0.1,0.8,0.1c0.2,0.1,0.4,0.1,0.6,0.1c0.2,0,0.4-0.1,0.5-0.2c0.2-0.2,0.2-0.4,0.2-0.6
	c0-0.3-0.2-0.6-0.4-0.7C53,151.1,52.7,151.1,52.4,151.1L52.4,151.1z M67.8,164.2l-6.1-6.5l5.8-4.9c0.2-0.2,0.3-0.4,0.3-0.6
	c0-0.2-0.1-0.4-0.2-0.6c-0.1-0.2-0.3-0.3-0.6-0.3c-0.2,0-0.4,0.1-0.6,0.3l-8.1,7v-12.8c0-0.5-0.4-0.8-0.8-0.8
	c-0.5,0-0.8,0.4-0.8,0.8l0,0v19c0,0.5,0.4,0.8,0.8,0.8c0.5,0,0.8-0.4,0.8-0.8l0,0v-4.2l2.1-1.8l6.2,6.5c0.1,0.2,0.4,0.3,0.6,0.3
	s0.4-0.1,0.5-0.2c0.2-0.1,0.3-0.4,0.3-0.6C68,164.6,67.9,164.4,67.8,164.2L67.8,164.2L67.8,164.2z M82.9,157.7
	c0-1.3-0.3-2.5-0.9-3.6c-0.6-1-1.4-1.8-2.4-2.3s-2.1-0.8-3.1-0.8c-1.1,0-2.3,0.3-3.2,0.9c-1,0.6-1.9,1.5-2.4,2.6
	c-0.6,1.2-0.9,2.6-0.9,4c0,1.3,0.3,2.7,0.9,3.9c0.6,1.1,1.5,2,2.6,2.6c1.2,0.6,2.5,0.9,3.8,0.9c1,0,2-0.2,2.9-0.7
	c0.9-0.4,1.6-1,2.3-1.8c0.2-0.2,0.3-0.4,0.3-0.6c0-0.4-0.3-0.7-0.7-0.7c-0.2,0-0.4,0.1-0.6,0.2c-0.5,0.6-1,1.1-1.7,1.4
	c-0.7,0.4-1.6,0.6-2.4,0.6c-1.1,0-2.1-0.2-3-0.8c-0.8-0.5-1.5-1.2-2-2.1c-0.5-0.9-0.7-2-0.7-3h10.6c0.2,0,0.4-0.1,0.6-0.2
	C82.8,158.1,82.9,157.9,82.9,157.7L82.9,157.7L82.9,157.7z M76.4,152.7c0.8,0,1.5,0.2,2.2,0.5c1.4,0.7,2.4,2,2.6,3.6v0.2h-9.6
	c0.2-1.3,0.8-2.4,1.8-3.2C74.2,153.1,75.3,152.7,76.4,152.7L76.4,152.7z M98,145c-0.2,0-0.4,0.1-0.6,0.2c-0.2,0.2-0.2,0.4-0.2,0.6
	v8.2c-0.5-0.9-1.2-1.6-2.1-2.1s-2-0.8-3.1-0.8c-1.2,0-2.3,0.3-3.3,1s-1.8,1.6-2.4,2.7c-0.6,1.2-0.9,2.5-0.9,3.8s0.3,2.6,0.9,3.8
	c0.5,1.1,1.4,2,2.4,2.7c1,0.6,2.2,1,3.3,1c1.1,0,2.2-0.3,3.1-0.9c0.9-0.5,1.6-1.3,2.1-2.2v2c0,0.2,0.1,0.4,0.2,0.6
	c0.3,0.3,0.9,0.3,1.2,0c0.2-0.2,0.3-0.4,0.3-0.6v-19C98.9,145.4,98.5,145,98,145L98,145L98,145L98,145z M92.2,164.4
	c-0.9,0-1.8-0.3-2.6-0.8c-0.8-0.5-1.4-1.3-1.8-2.1c-0.4-0.9-0.7-2-0.6-3c0-1,0.2-2.1,0.6-3s1-1.6,1.8-2.1c1.6-1,3.6-1,5.2,0
	c0.8,0.5,1.4,1.3,1.8,2.1c0.4,0.9,0.7,2,0.7,3c0,1.1-0.2,2.1-0.7,3c-0.4,0.9-1,1.6-1.8,2.1C94,164.2,93.1,164.4,92.2,164.4
	L92.2,164.4L92.2,164.4z M112.5,164.9V152c0-0.5-0.4-0.8-0.8-0.8c-0.5,0-0.8,0.4-0.8,0.8l0,0v12.9c0,0.5,0.4,0.8,0.8,0.8
	S112.5,165.3,112.5,164.9L112.5,164.9L112.5,164.9L112.5,164.9z M111.7,149.3c0.3,0,0.6-0.1,0.9-0.3c0.2-0.2,0.3-0.5,0.3-0.8v-0.3
	c0.1-0.5-0.3-1-0.9-1c-0.1,0-0.2,0-0.3,0c-0.3,0-0.6,0.1-0.9,0.3c-0.2,0.2-0.3,0.5-0.3,0.8v0.3c0,0.3,0.1,0.6,0.3,0.8
	C111,149.2,111.3,149.3,111.7,149.3L111.7,149.3L111.7,149.3z M123.6,151.1c-1,0-2,0.3-2.9,0.8s-1.6,1.2-2.2,2v-1.5
	c0-0.2-0.1-0.4-0.2-0.6c-0.3-0.3-0.8-0.3-1.2,0c-0.2,0.2-0.3,0.4-0.3,0.6v12.5c0,0.2,0.1,0.4,0.2,0.6c0.3,0.3,0.9,0.3,1.2,0
	c0.2-0.2,0.3-0.4,0.3-0.6v-8.1c0-0.7,0.2-1.4,0.7-2s1.1-1.1,1.8-1.5c0.7-0.4,1.5-0.6,2.3-0.6c1.1-0.1,2.1,0.3,2.8,1.1
	c0.6,0.8,1,1.9,0.9,3v8.1c0,0.5,0.3,0.8,0.8,0.8l0,0c0.2,0,0.4-0.1,0.6-0.2c0.2-0.2,0.3-0.4,0.2-0.6v-8.2c0.1-1.4-0.4-2.9-1.2-4
	C126.5,151.5,125.1,150.9,123.6,151.1L123.6,151.1L123.6,151.1z M152.3,151.4c-0.2,0-0.4,0.1-0.6,0.2c-0.2,0.2-0.2,0.4-0.2,0.6v1.7
	c-0.5-0.9-1.2-1.6-2.1-2.1c-2-1.1-4.4-1.1-6.4,0.1c-1,0.6-1.8,1.6-2.4,2.6c-0.6,1.2-0.9,2.5-0.9,3.8s0.3,2.6,0.9,3.8
	c0.5,1.1,1.3,2,2.4,2.7c1,0.7,2.2,1,3.4,1c1.1,0,2.1-0.3,3.1-0.9c0.9-0.5,1.6-1.2,2.1-2.1v1.9c0,0.5,0.4,0.8,0.9,0.8
	c0.2,0,0.4-0.1,0.6-0.2c0.2-0.2,0.2-0.4,0.2-0.6v-12.6c0-0.2-0.1-0.4-0.2-0.6C152.8,151.5,152.5,151.4,152.3,151.4L152.3,151.4
	L152.3,151.4z M146.5,164.4c-0.9,0-1.9-0.3-2.6-0.8c-0.8-0.5-1.4-1.3-1.8-2.1c-0.4-0.9-0.7-2-0.6-3c0-1,0.2-2.1,0.7-3
	c0.4-0.8,1-1.6,1.8-2.1s1.7-0.8,2.6-0.8c0.9,0,1.8,0.3,2.6,0.8s1.4,1.3,1.8,2.1c0.4,0.9,0.7,1.9,0.7,3c0,1-0.2,2.1-0.7,3
	c-0.4,0.9-1,1.6-1.8,2.1C148.3,164.2,147.4,164.4,146.5,164.4L146.5,164.4L146.5,164.4z M156.7,163.4c1.3,1.7,3.3,2.6,5.4,2.5
	c1.3,0,2.6-0.3,3.6-1.1c0.9-0.7,1.5-1.7,1.5-2.9c0-0.8-0.2-1.5-0.6-2.1c-0.4-0.5-0.9-1-1.6-1.3c-0.8-0.3-1.6-0.6-2.4-0.8
	c-1-0.2-1.9-0.6-2.8-1.1c-0.6-0.4-1-1-1-1.7s0.3-1.4,0.9-1.8c0.7-0.4,1.5-0.6,2.2-0.6s1.4,0.1,2,0.4c0.6,0.3,1.2,0.7,1.6,1.1
	c0.1,0.1,0.3,0.2,0.5,0.2s0.4,0,0.5-0.2c0.2-0.1,0.3-0.4,0.3-0.6c0-0.2-0.1-0.4-0.2-0.6c-0.6-0.7-1.3-1.2-2.1-1.5s-1.6-0.5-2.4-0.5
	c-0.9,0-1.7,0.2-2.5,0.5c-0.7,0.3-1.3,0.8-1.8,1.4c-0.4,0.6-0.7,1.3-0.6,2.1c-0.1,1.1,0.4,2.1,1.3,2.8c1.1,0.7,2.3,1.2,3.6,1.5
	c0.9,0.2,1.8,0.5,2.6,1c0.6,0.4,1,1.1,0.9,1.8c0,0.7-0.4,1.4-1,1.8c-0.7,0.4-1.5,0.6-2.3,0.6c-1.7,0-3.4-0.8-4.4-2.2
	c-0.2-0.2-0.4-0.3-0.6-0.3c-0.2,0-0.3,0.1-0.4,0.2c-0.2,0.1-0.4,0.3-0.4,0.6C156.5,163,156.6,163.2,156.7,163.4L156.7,163.4
	L156.7,163.4z M169.9,163.4c1.3,1.7,3.3,2.6,5.4,2.5c1.3,0,2.6-0.3,3.6-1.1c0.9-0.7,1.5-1.7,1.5-2.9c0-0.8-0.2-1.5-0.6-2.1
	c-0.4-0.5-0.9-1-1.6-1.3c-0.8-0.3-1.6-0.6-2.4-0.8c-1-0.2-2-0.6-2.9-1.1c-0.6-0.4-1-1-1-1.7s0.3-1.4,0.9-1.8
	c0.7-0.4,1.5-0.6,2.2-0.6s1.4,0.1,2,0.4c0.6,0.3,1.2,0.7,1.6,1.1c0.1,0.1,0.3,0.2,0.5,0.2s0.4,0,0.5-0.2c0.2-0.1,0.3-0.4,0.3-0.6
	c0-0.2-0.1-0.4-0.3-0.6c-0.6-0.7-1.3-1.2-2.1-1.5s-1.6-0.5-2.4-0.5c-0.9,0-1.7,0.2-2.5,0.5c-0.7,0.3-1.3,0.8-1.8,1.4
	c-0.4,0.6-0.6,1.3-0.6,2.1c-0.1,1.1,0.4,2.1,1.3,2.8c1.1,0.7,2.3,1.2,3.6,1.5c0.9,0.2,1.8,0.5,2.6,1c0.6,0.4,1,1.1,0.9,1.8
	c0,0.7-0.4,1.4-1,1.8c-0.7,0.4-1.5,0.6-2.3,0.6c-1.7,0-3.4-0.8-4.4-2.2c-0.2-0.2-0.4-0.3-0.6-0.3c-0.2,0-0.3,0.1-0.4,0.2
	c-0.2,0.1-0.4,0.3-0.4,0.6C169.7,163,169.7,163.2,169.9,163.4L169.9,163.4L169.9,163.4z M197,158.5c0-1.3-0.3-2.6-0.9-3.8
	c-0.6-1.1-1.5-2-2.6-2.7c-2.2-1.3-5-1.3-7.2,0c-1.1,0.6-2,1.6-2.5,2.7c-1.2,2.4-1.2,5.2,0,7.6c0.6,1.1,1.5,2,2.5,2.7
	c2.2,1.3,5,1.3,7.2,0c1.1-0.6,2-1.6,2.6-2.7C196.7,161.2,197,159.9,197,158.5L197,158.5z M195.4,158.5c0,1.1-0.2,2.1-0.7,3
	c-0.4,0.9-1.1,1.6-1.9,2.1c-0.8,0.5-1.8,0.8-2.8,0.8s-1.9-0.3-2.8-0.8c-0.8-0.5-1.5-1.2-1.9-2.1c-1-1.9-1-4.1,0-6
	c0.4-0.9,1.1-1.6,1.9-2.1c1.7-1,3.8-1,5.5,0c0.8,0.5,1.5,1.2,1.9,2.1C195.1,156.4,195.4,157.5,195.4,158.5L195.4,158.5z
	 M206.7,151.1c-2.6-0.1-5,1.4-6.2,3.7c-0.6,1.1-0.9,2.4-0.9,3.7s0.3,2.6,0.9,3.8c0.6,1.1,1.4,2,2.5,2.7s2.4,1,3.6,1
	c0.9,0,1.8-0.1,2.6-0.4c0.7-0.2,1.3-0.5,1.9-0.9c0.4-0.2,0.6-0.6,0.7-1c0-0.2-0.1-0.4-0.2-0.5c-0.2-0.2-0.6-0.3-0.9-0.1
	c-0.1,0.1-0.3,0.2-0.4,0.3c-0.2,0.2-0.4,0.4-0.7,0.5c-0.4,0.2-0.8,0.4-1.2,0.5c-0.5,0.1-1.1,0.2-1.6,0.2c-1,0-2-0.2-2.8-0.8
	c-0.8-0.5-1.5-1.2-1.9-2.1c-0.5-0.9-0.7-2-0.7-3s0.2-2.1,0.7-3s1.2-1.6,2-2.1s1.8-0.8,2.8-0.8c0.5,0,1,0,1.5,0.1
	c0.4,0.1,0.8,0.2,1.1,0.3s0.5,0.3,0.7,0.5c0.1,0.1,0.3,0.2,0.4,0.3c0.1,0.1,0.3,0.1,0.5,0.1s0.4-0.1,0.5-0.2
	c0.1-0.2,0.2-0.4,0.2-0.6c0-0.5-0.3-0.9-0.7-1.1c-0.6-0.4-1.2-0.7-1.8-0.8C208.3,151.1,207.5,151,206.7,151.1L206.7,151.1
	L206.7,151.1z M216.5,164.9V152c0-0.5-0.4-0.8-0.8-0.8c-0.5,0-0.8,0.4-0.8,0.8l0,0v12.9c0,0.5,0.4,0.8,0.8,0.8
	S216.5,165.3,216.5,164.9L216.5,164.9L216.5,164.9z M215.7,149.3c0.3,0,0.6-0.1,0.9-0.3c0.2-0.2,0.3-0.5,0.3-0.8v-0.3
	c0.1-0.5-0.3-1-0.9-1c-0.1,0-0.2,0-0.3,0c-0.3,0-0.6,0.1-0.9,0.3c-0.2,0.2-0.3,0.5-0.3,0.8v0.3c0,0.3,0.1,0.6,0.3,0.8
	C215,149.2,215.3,149.3,215.7,149.3L215.7,149.3L215.7,149.3z M232.5,151.4c-0.2,0-0.4,0.1-0.6,0.2c-0.2,0.2-0.2,0.4-0.2,0.6v1.7
	c-0.5-0.9-1.2-1.6-2.1-2.1c-2-1.1-4.5-1.1-6.4,0.1c-1,0.6-1.8,1.6-2.4,2.6c-0.6,1.2-0.9,2.5-0.9,3.8s0.3,2.6,0.9,3.8
	c0.5,1.1,1.3,2,2.4,2.7c1,0.7,2.2,1,3.4,1c1.1,0,2.1-0.3,3.1-0.9c0.9-0.5,1.6-1.3,2.1-2.1v1.9c0,0.2,0.1,0.4,0.2,0.6
	c0.3,0.3,0.9,0.3,1.2,0c0.2-0.2,0.3-0.4,0.3-0.6v-12.6c0-0.2-0.1-0.5-0.2-0.6C232.9,151.5,232.7,151.4,232.5,151.4L232.5,151.4
	L232.5,151.4z M226.7,164.4c-0.9,0-1.9-0.2-2.6-0.8c-0.8-0.5-1.4-1.3-1.8-2.1c-0.4-0.9-0.7-2-0.6-3c0-1,0.2-2.1,0.6-3
	c0.4-0.8,1-1.6,1.8-2.1s1.7-0.8,2.6-0.8c0.9,0,1.8,0.3,2.6,0.8s1.4,1.3,1.8,2.1c0.4,0.9,0.7,1.9,0.7,3c0,1-0.2,2.1-0.7,3
	c-0.4,0.9-1,1.6-1.8,2.1C228.5,164.2,227.6,164.4,226.7,164.4L226.7,164.4L226.7,164.4z M243.3,153c0.2,0,0.4-0.1,0.6-0.2
	c0.2-0.1,0.2-0.3,0.2-0.5s-0.1-0.4-0.2-0.6c-0.1-0.2-0.3-0.3-0.6-0.2h-2.8v-3.1c0-0.2-0.1-0.4-0.2-0.6c-0.2-0.2-0.4-0.2-0.6-0.2
	c-0.5,0-0.8,0.3-0.8,0.8l0,0v3.1h-2c-0.2,0-0.4,0.1-0.6,0.2c-0.1,0.1-0.2,0.3-0.2,0.6c0,0.2,0.1,0.4,0.2,0.6
	c0.2,0.2,0.4,0.2,0.6,0.2h2v9.5c-0.1,0.8,0.1,1.6,0.6,2.2c0.3,0.4,0.7,0.7,1.1,0.8c0.4,0.1,0.9,0.1,1.4,0.1c0.4,0,0.7-0.1,1.1-0.3
	c0.3-0.1,0.4-0.4,0.4-0.6c0-0.2-0.1-0.4-0.2-0.5c-0.1-0.1-0.3-0.2-0.4-0.2c-0.1,0-0.3,0-0.4,0.1c-0.1,0-0.3,0.1-0.4,0.1
	c-0.4,0-0.8-0.1-1-0.4c-0.3-0.4-0.5-0.9-0.4-1.4V153H243.3L243.3,153z M248.8,164.9V152c0-0.5-0.3-0.8-0.8-0.8l0,0
	c-0.2,0-0.4,0.1-0.6,0.2c-0.2,0.2-0.2,0.4-0.2,0.6v12.9c0,0.2,0.1,0.4,0.2,0.6c0.2,0.2,0.4,0.2,0.6,0.2
	C248.4,165.7,248.8,165.4,248.8,164.9L248.8,164.9L248.8,164.9L248.8,164.9z M248,149.3c0.3,0,0.6-0.1,0.9-0.3
	c0.2-0.2,0.3-0.5,0.3-0.8v-0.3c0.1-0.5-0.3-1-0.9-1c-0.1,0-0.2,0-0.3,0c-0.3,0-0.6,0.1-0.9,0.3c-0.2,0.2-0.3,0.5-0.3,0.8v0.3
	c0,0.3,0.1,0.6,0.3,0.8C247.4,149.2,247.7,149.3,248,149.3L248,149.3L248,149.3z M266.4,158.5c0-1.3-0.3-2.6-0.9-3.8
	c-0.6-1.1-1.5-2-2.6-2.7c-3.3-2-7.6-0.9-9.6,2.4c-0.1,0.1-0.1,0.2-0.2,0.3c-1.2,2.4-1.2,5.2,0,7.6c0.6,1.1,1.5,2,2.6,2.7
	c3.3,2,7.6,0.9,9.6-2.4c0.1-0.1,0.1-0.2,0.2-0.3C266.1,161.2,266.4,159.9,266.4,158.5L266.4,158.5z M264.7,158.5
	c0,1.1-0.2,2.1-0.7,3c-0.9,1.8-2.7,2.9-4.7,2.9c-1,0-1.9-0.3-2.8-0.8c-0.8-0.5-1.5-1.2-1.9-2.1c-1-1.9-1-4.1,0-6
	c0.4-0.9,1.1-1.6,1.9-2.1s1.8-0.8,2.8-0.8s1.9,0.3,2.8,0.8c0.8,0.5,1.5,1.3,1.9,2.1C264.5,156.4,264.7,157.5,264.7,158.5
	L264.7,158.5z M276.6,151.1c-1,0-2,0.3-2.9,0.8s-1.6,1.2-2.2,2v-1.5c0-0.2-0.1-0.4-0.2-0.6c-0.3-0.3-0.9-0.3-1.2,0
	c-0.2,0.2-0.2,0.4-0.2,0.6v12.5c0,0.2,0.1,0.4,0.2,0.6c0.3,0.3,0.9,0.3,1.2,0c0.2-0.2,0.3-0.4,0.3-0.6v-8.1c0-0.7,0.2-1.4,0.7-2
	s1.1-1.1,1.8-1.5c0.7-0.4,1.5-0.6,2.3-0.6c1.1-0.1,2.1,0.3,2.8,1.1c0.6,0.8,1,1.9,0.9,3v8.1c0,0.5,0.3,0.8,0.8,0.8l0,0
	c0.2,0,0.4-0.1,0.6-0.2c0.2-0.2,0.3-0.4,0.2-0.6v-8.2c0.1-1.4-0.4-2.9-1.2-4C279.5,151.5,278,150.9,276.6,151.1L276.6,151.1
	L276.6,151.1z M310.7,151.1c-0.4,0-0.7,0.2-0.8,0.6l-3.7,11.1l-3.5-8.3c-0.1-0.3-0.4-0.5-0.8-0.5s-0.7,0.2-0.8,0.5l-3.3,8.4
	l-3.7-11.2c-0.1-0.2-0.2-0.3-0.3-0.4c-0.1-0.1-0.3-0.2-0.5-0.2s-0.5,0.1-0.6,0.2c-0.2,0.2-0.3,0.4-0.2,0.6c0,0.1,0,0.3,0.1,0.4
	l4.4,12.9c0.1,0.2,0.2,0.3,0.3,0.4c0.2,0.1,0.3,0.2,0.5,0.1c0.2,0,0.3-0.1,0.4-0.1c0.1-0.1,0.2-0.2,0.3-0.4l3.3-8.6l3.7,8.6
	c0.1,0.2,0.2,0.3,0.3,0.4c0.1,0.1,0.3,0.1,0.4,0.1c0.2,0,0.3,0,0.5-0.1s0.3-0.2,0.4-0.4l4.3-12.9c0.1-0.2,0.1-0.4,0.1-0.4
	c0-0.2-0.1-0.5-0.2-0.6C311.1,151.2,310.9,151.1,310.7,151.1L310.7,151.1L310.7,151.1z M316.4,164.9V152c0-0.2-0.1-0.4-0.2-0.6
	c-0.2-0.2-0.4-0.3-0.6-0.2c-0.5,0-0.8,0.3-0.8,0.8l0,0v12.9c0,0.5,0.3,0.8,0.8,0.8l0,0c0.2,0,0.4-0.1,0.6-0.2
	C316.3,165.3,316.4,165.1,316.4,164.9L316.4,164.9z M315.5,149.3c0.3,0,0.6-0.1,0.9-0.3c0.2-0.2,0.3-0.5,0.3-0.8v-0.3
	c0.1-0.5-0.3-1-0.9-1c-0.1,0-0.2,0-0.3,0c-0.3,0-0.6,0.1-0.9,0.3c-0.2,0.2-0.3,0.5-0.3,0.8v0.3c0,0.3,0.1,0.6,0.3,0.8
	C314.9,149.2,315.2,149.3,315.5,149.3L315.5,149.3L315.5,149.3z M326.3,153c0.2,0,0.4-0.1,0.6-0.2c0.1-0.1,0.2-0.3,0.2-0.5
	s-0.1-0.4-0.2-0.6c-0.1-0.2-0.3-0.3-0.6-0.2h-2.8v-3.1c0-0.5-0.4-0.8-0.8-0.8c-0.5,0-0.8,0.4-0.8,0.8l0,0v3.1h-2
	c-0.2,0-0.4,0.1-0.6,0.2c-0.2,0.1-0.2,0.3-0.2,0.6c0,0.2,0.1,0.4,0.2,0.6c0.2,0.2,0.4,0.2,0.6,0.2h2v9.5c-0.1,0.8,0.1,1.6,0.6,2.2
	c0.3,0.4,0.7,0.7,1.1,0.8s0.9,0.1,1.3,0.1s0.7-0.1,1.1-0.3c0.3-0.1,0.4-0.4,0.4-0.6c0-0.2-0.1-0.4-0.2-0.5s-0.3-0.2-0.4-0.2
	s-0.3,0-0.4,0.1c-0.1,0-0.3,0.1-0.4,0.1c-0.4,0-0.8-0.1-1-0.4c-0.3-0.4-0.5-0.9-0.4-1.4V153H326.3L326.3,153z M336.8,151.3
	c-1,0-1.9,0.3-2.8,0.8s-1.6,1.2-2.1,2v-8.2c0-0.2-0.1-0.4-0.2-0.6c-0.2-0.2-0.4-0.2-0.6-0.2c-0.5,0-0.8,0.3-0.8,0.8l0,0v19
	c0,0.5,0.3,0.8,0.8,0.8l0,0c0.2,0,0.4-0.1,0.6-0.2c0.2-0.2,0.2-0.4,0.2-0.6V157c0-0.7,0.2-1.4,0.6-2c0.9-1.3,2.4-2.1,3.9-2.1
	c1-0.1,2,0.3,2.7,1.1c0.6,0.9,0.9,1.9,0.9,3v7.9c0,0.5,0.4,0.8,0.8,0.8c0.5,0,0.8-0.4,0.8-0.8l0,0V157c0.1-1.5-0.4-2.9-1.2-4.1
	C339.6,151.8,338.2,151.2,336.8,151.3L336.8,151.3L336.8,151.3z M18.5,206.6l-6.7-8.9l6.5-6.2c0.3-0.3,0.5-0.7,0.5-1.2
	c0-0.4-0.2-0.9-0.5-1.2c-0.3-0.4-0.7-0.6-1.2-0.6c-0.6,0-1.1,0.3-1.5,0.7L6,198.7v-8.2c0-1-0.7-1.8-1.7-1.8c-0.1,0-0.1,0-0.2,0
	c-0.5,0-1,0.2-1.4,0.5s-0.6,0.8-0.5,1.3v17.3c0,0.5,0.2,1,0.5,1.3c0.4,0.4,0.8,0.5,1.3,0.5s1-0.2,1.4-0.5s0.5-0.8,0.5-1.3v-4.7
	l2.9-2.7l6.5,8.6c0.2,0.2,0.4,0.4,0.6,0.5c0.2,0.1,0.5,0.2,0.8,0.2c0.5,0,1-0.2,1.4-0.5s0.6-0.8,0.6-1.4c0-0.2,0-0.4-0.1-0.6
	C18.7,206.9,18.6,206.8,18.5,206.6L18.5,206.6L18.5,206.6z M25.8,207.9v-17.3c0-0.5-0.2-1-0.5-1.3s-0.8-0.5-1.3-0.5s-1,0.2-1.4,0.5
	s-0.6,0.8-0.5,1.3v17.3c0,0.5,0.2,1,0.5,1.3c0.4,0.4,0.8,0.5,1.3,0.5s1-0.2,1.3-0.5C25.6,208.8,25.8,208.4,25.8,207.9L25.8,207.9
	L25.8,207.9z M46.8,207.4l-7.4-17.6c-0.2-0.7-0.9-1.2-1.7-1.2c-0.4,0-0.8,0.1-1.1,0.3s-0.6,0.6-0.7,0.9l-7.5,17.9
	c-0.1,0.2-0.1,0.4-0.1,0.6c0,0.4,0.1,0.8,0.4,1.1s0.7,0.5,1.2,0.4c0.3,0,0.7-0.1,0.9-0.3c0.3-0.2,0.5-0.5,0.6-0.9l1.6-3.7h9l1.6,3.6
	c0.1,0.4,0.4,0.7,0.7,0.9s0.6,0.3,1,0.3s0.9-0.2,1.2-0.5s0.5-0.8,0.5-1.3C46.9,207.8,46.9,207.6,46.8,207.4L46.8,207.4L46.8,207.4z
	 M37.5,194.5l3,7h-6L37.5,194.5z M76.1,188.7c-0.3,0-0.6,0.1-0.8,0.2c-0.3,0.1-0.5,0.3-0.6,0.6l-6.7,10l-6.5-10
	c-0.2-0.3-0.4-0.5-0.7-0.6s-0.6-0.2-0.9-0.2c-0.5,0-1,0.2-1.3,0.5c-0.4,0.3-0.6,0.8-0.6,1.3v17.4c0,0.5,0.2,0.9,0.5,1.3
	c0.3,0.3,0.8,0.5,1.2,0.5c0.5,0,0.9-0.2,1.3-0.5c0.3-0.4,0.5-0.8,0.5-1.3v-12.4l4.9,7.8c0.2,0.2,0.4,0.4,0.7,0.6
	c0.2,0.1,0.5,0.2,0.8,0.2s0.6-0.1,0.8-0.2c0.3-0.2,0.5-0.3,0.7-0.6l4.9-7.6v12.1c0,0.5,0.2,1,0.5,1.3c0.4,0.3,0.9,0.5,1.4,0.5
	s1-0.2,1.4-0.5c0.3-0.3,0.5-0.8,0.5-1.3v-17.4c0-0.5-0.2-1-0.6-1.3C77,188.9,76.6,188.7,76.1,188.7L76.1,188.7z M101.8,199.2
	c0-1.9-0.4-3.8-1.3-5.5c-0.8-1.6-2.1-3-3.6-3.9c-3.2-1.9-7.2-1.9-10.5,0c-1.5,1-2.8,2.3-3.6,3.9c-1.7,3.4-1.7,7.5,0,10.9
	c0.8,1.6,2.1,3,3.6,3.9c3.2,1.9,7.2,1.9,10.5,0c1.5-1,2.8-2.3,3.6-3.9C101.3,203,101.8,201.1,101.8,199.2L101.8,199.2z M97.9,199.2
	c0,1.3-0.3,2.5-0.8,3.6s-1.3,2-2.2,2.6c-2,1.3-4.5,1.3-6.5,0c-1-0.6-1.7-1.5-2.2-2.6c-1.1-2.3-1.1-5,0-7.3c0.5-1.1,1.3-2,2.2-2.6
	c2-1.3,4.5-1.3,6.5,0c1,0.6,1.7,1.5,2.2,2.6C97.6,196.7,97.9,197.9,97.9,199.2L97.9,199.2z M118.4,188.7h-13.3
	c-0.5,0-0.9,0.2-1.3,0.5c-0.3,0.3-0.5,0.8-0.5,1.2c0,0.5,0.2,0.9,0.5,1.3c0.4,0.3,0.8,0.5,1.3,0.5h4.7v15.7c0,0.5,0.2,1,0.5,1.3
	c0.4,0.4,0.9,0.5,1.4,0.5s1-0.2,1.4-0.5s0.6-0.8,0.6-1.3v-15.7h4.7c0.5,0,1-0.1,1.3-0.5c0.3-0.3,0.5-0.8,0.5-1.2
	c0-0.5-0.2-0.9-0.5-1.3C119.4,188.8,118.9,188.7,118.4,188.7L118.4,188.7L118.4,188.7z M142.1,199.2c0-1.9-0.4-3.8-1.3-5.5
	c-0.8-1.6-2.1-3-3.6-3.9c-3.2-1.9-7.2-1.9-10.5,0c-1.5,1-2.8,2.3-3.6,3.9c-1.7,3.4-1.7,7.5,0,10.9c0.8,1.6,2.1,3,3.6,3.9
	c3.2,1.9,7.2,1.9,10.5,0c1.5-1,2.8-2.3,3.6-3.9C141.7,203,142.1,201.1,142.1,199.2L142.1,199.2z M138.2,199.2c0,1.3-0.3,2.5-0.8,3.6
	s-1.3,2-2.2,2.6c-2,1.3-4.5,1.3-6.5,0c-1-0.6-1.7-1.5-2.2-2.6c-1.1-2.3-1.1-5,0-7.3c0.5-1.1,1.3-2,2.2-2.6c2-1.3,4.5-1.3,6.5,0
	c1,0.6,1.7,1.5,2.2,2.6C138,196.7,138.2,197.9,138.2,199.2L138.2,199.2z M162,206.8c-0.3-0.1-0.5-0.3-0.5-0.6
	c-0.1-0.4-0.2-0.9-0.2-1.3c0-0.3,0-0.6-0.1-0.9c-0.1-1.4-0.9-2.8-2.1-3.5c0.9-0.6,1.6-1.4,2.1-2.3c0.5-0.9,0.8-1.9,0.8-2.9
	c0-1.2-0.3-2.3-0.8-3.3c-0.5-0.9-1.3-1.7-2.2-2.3c-0.9-0.5-1.9-0.8-2.9-0.8h-8.6c-1,0-1.8,0.8-1.8,1.8c0,0,0,0,0,0.1v17.3
	c0,0.5,0.2,1,0.6,1.3c0.4,0.4,1,0.5,1.5,0.5c0.4,0,0.9-0.2,1.2-0.5c0.3-0.4,0.5-0.8,0.4-1.3V202h5.6c0.7,0,1.5,0.2,2,0.6
	c0.5,0.4,0.7,1.1,0.7,1.7c0,2.5,0.7,4.2,2.2,5c0.4,0.2,0.9,0.3,1.3,0.3c0.5,0,1-0.2,1.4-0.5c0.2-0.3,0.4-0.6,0.4-1
	c0-0.3-0.1-0.6-0.2-0.8C162.5,207.1,162.3,206.9,162,206.8L162,206.8L162,206.8z M155.9,199h-6.6v-6.8h6.6c0.4,0,0.8,0.2,1.1,0.4
	c0.4,0.3,0.6,0.7,0.8,1.1c0.2,0.5,0.3,1,0.3,1.5c0,0.6-0.1,1.3-0.3,1.8s-0.5,1-0.8,1.4C156.7,198.8,156.3,198.9,155.9,199L155.9,199
	L155.9,199z M172.9,210c1.3,0,2.6-0.3,3.8-0.8c1.1-0.5,2.1-1.2,2.8-2.2s1.1-2.1,1.1-3.3c0.1-1.1-0.2-2.2-0.8-3.2
	c-0.6-0.9-1.4-1.5-2.3-1.9c-1.3-0.5-2.7-0.9-4.1-1.1c-1.2-0.2-2.3-0.5-3.3-1.1c-1.1-0.6-1.4-2-0.7-3.1c0.2-0.3,0.4-0.5,0.7-0.7
	c0.9-0.5,1.9-0.8,2.9-0.7c0.9,0,1.7,0.2,2.5,0.5s1.5,0.7,2.2,1.2c0.2,0.2,0.5,0.3,0.8,0.3c0.5,0,0.9-0.2,1.2-0.5s0.5-0.8,0.5-1.2
	c0-0.6-0.3-1.2-0.9-1.6c-0.8-0.7-1.8-1.2-2.8-1.5c-1.1-0.4-2.4-0.6-3.6-0.6c-1.3,0-2.6,0.2-3.8,0.7c-1.1,0.4-2,1.2-2.7,2.1
	c-0.7,1-1,2.1-1,3.3c0,3.4,2.2,5.5,6.6,6.1c1.3,0.1,2.6,0.5,3.8,1.1c0.8,0.4,1.2,1.2,1.2,2.1c0,0.8-0.5,1.5-1.2,1.9
	c-0.9,0.5-1.9,0.8-2.9,0.8c-0.9,0-1.8-0.1-2.7-0.5s-1.6-0.8-2.3-1.4c-0.3-0.2-0.6-0.4-1-0.4c-0.5,0-0.9,0.2-1.2,0.5
	s-0.5,0.8-0.5,1.2c0,0.6,0.3,1.2,0.8,1.6c0.9,0.8,2,1.4,3.1,1.8C170.3,209.8,171.6,210,172.9,210L172.9,210L172.9,210z"/>
<rect class="st1" width="481" height="5.7"/>
</svg>
