<?xml version="1.0" encoding="utf-8"?>
<!-- Generator: Adobe Illustrator 21.1.0, SVG Export Plug-In . SVG Version: 6.00 Build 0)  -->
<svg version="1.1" id="Layer_1" xmlns="http://www.w3.org/2000/svg" xmlns:xlink="http://www.w3.org/1999/xlink" x="0px" y="0px"
	 viewBox="0 0 172.9 35.9" style="enable-background:new 0 0 172.9 35.9;" xml:space="preserve">
<style type="text/css">
	.st0{fill:#FFFFFF;}
</style>
<g>
	<g>
		<path class="st0" d="M21.2,35.9H2.5c-1.4,0-2.5-1.1-2.5-2.5V4.5C0,3.1,1.1,2,2.5,2S5,3.1,5,4.5V31h16.3c1.4,0,2.5,1.1,2.5,2.5
			C23.7,34.8,22.6,35.9,21.2,35.9z"/>
		<g>
			<path class="st0" d="M39.8,35.9c-1.4,0-2.5-1.1-2.5-2.5V12.7c0-1.4,1.1-2.5,2.5-2.5s2.5,1.1,2.5,2.5v20.7
				C42.3,34.8,41.2,35.9,39.8,35.9z"/>
			<path class="st0" d="M56.5,35.9c-1.4,0-2.5-1.1-2.5-2.5v-12c0-3.2-2.6-5.9-5.9-5.9c-3.2,0-5.9,2.6-5.9,5.9v12.1
				c0,1.4-1.1,2.5-2.5,2.5s-2.5-1.1-2.5-2.5V21.4c0-6,4.8-10.8,10.8-10.8s10.8,4.8,10.8,10.8v12.1C58.9,34.8,57.8,35.9,56.5,35.9z"
				/>
		</g>
		<g>
			<path class="st0" d="M29.8,35.9c-1.4,0-2.5-1.1-2.5-2.5V12.8c0-1.4,1.1-2.5,2.5-2.5s2.5,1.1,2.5,2.5v20.6
				C32.3,34.8,31.2,35.9,29.8,35.9z"/>
			<circle class="st0" cx="29.8" cy="4.8" r="3"/>
		</g>
		<path class="st0" d="M107.2,22.9c0-7.2,5.8-13,13-13s13,5.8,13,13s-5.8,13-13,13c-1.4,0-2.5-1.1-2.5-2.5s1.1-2.5,2.5-2.5
			c4.4,0,8.1-3.6,8.1-8.1c0-4.4-3.6-8.1-8.1-8.1c-4.4,0-8.1,3.6-8.1,8.1c0,1.4-1.1,2.5-2.5,2.5C108.3,25.4,107.2,24.3,107.2,22.9z"
			/>
		<path class="st0" d="M86.2,22.9c0-7.2,5.8-13,13-13c1.4,0,2.5,1.1,2.5,2.5s-1.1,2.5-2.5,2.5c-4.4,0-8.1,3.6-8.1,8.1
			c0,4.4,3.6,8.1,8.1,8.1c4.4,0,8.1-3.6,8.1-8.1c0-1.4,1.1-2.5,2.5-2.5s2.5,1.1,2.5,2.5c0,7.2-5.8,13-13,13
			C92,35.9,86.2,30.1,86.2,22.9z"/>
		<path class="st0" d="M109.7,35.9c-1.4,0-2.5-1.1-2.5-2.5v-31c0-1.4,1.1-2.5,2.5-2.5l0,0c1.4,0,2.5,1.1,2.5,2.5v31
			C112.1,34.8,111,35.9,109.7,35.9L109.7,35.9z"/>
		<path class="st0" d="M139.6,35.9c-1.4,0-2.5-1.1-2.5-2.5v-31c0-1.4,1.1-2.5,2.5-2.5s2.5,1.1,2.5,2.5v31
			C142.1,34.8,141,35.9,139.6,35.9z"/>
		<path class="st0" d="M65.9,35.9c-1.4,0-2.5-1.1-2.5-2.5V2.8c0-1.4,1.1-2.5,2.5-2.5s2.5,1.1,2.5,2.5v30.7
			C68.4,34.8,67.3,35.9,65.9,35.9z"/>
		<g>
			<path class="st0" d="M82,35.9c-0.7,0-1.3-0.3-1.8-0.8l-9.6-10.5c-0.9-0.9-0.9-2.4,0-3.3l9.6-10.5c0.9-1,2.5-1.1,3.5-0.2
				c1,0.9,1.1,2.5,0.2,3.5l-8,8.8l8,8.8c0.9,1,0.8,2.6-0.2,3.5C83.2,35.7,82.6,35.9,82,35.9z"/>
			<path class="st0" d="M71.5,25.4h-4.9c-1.4,0-2.5-1.1-2.5-2.5s1.1-2.5,2.5-2.5h4.9c1.4,0,2.5,1.1,2.5,2.5
				C73.9,24.3,72.8,25.4,71.5,25.4z"/>
		</g>
	</g>
	<path class="st0" d="M159.2,35.9c-7.5,0-13.6-6.1-13.6-13.6s6.1-13.6,13.6-13.6s13.6,6.1,13.6,13.6c0,1.4-1.1,2.5-2.5,2.5h-11.1
		c-1.4,0-2.5-1.1-2.5-2.5s1.1-2.5,2.5-2.5h8.3c-1.1-3.6-4.4-6.2-8.3-6.2c-4.8,0-8.7,3.9-8.7,8.7s3.9,8.7,8.7,8.7
		c1.7,0,3.3-0.5,4.7-1.4c1.1-0.7,2.7-0.4,3.4,0.7s0.4,2.7-0.7,3.4C164.5,35.1,161.9,35.9,159.2,35.9z"/>
</g>
</svg>
